<svg width="1079" height="450" viewBox="0 0 1079 450" fill="none" xmlns="http://www.w3.org/2000/svg">
<rect width="1079" height="450" fill="#FF7878"/>
<path fill-rule="evenodd" clip-rule="evenodd" d="M532.021 450H252.979C172.487 410.913 141.654 299.913 208.733 224.527L284.922 138.902C342.197 74.5327 442.803 74.5327 500.078 138.902L576.267 224.527C643.346 299.913 612.513 410.913 532.021 450Z" fill="#FFF27F"/>
<ellipse cx="274.5" cy="164.5" rx="54.5" ry="19.5" fill="#723E00"/>
<ellipse cx="330.5" cy="138" rx="5.5" ry="4" fill="#434343"/>
<path fill-rule="evenodd" clip-rule="evenodd" d="M875.421 0L878.789 38.4695C884.685 105.832 814.844 153.875 754.044 124.281L697.828 96.9186C659.118 78.0768 642.916 36.9355 650.874 0H875.421Z" fill="#28C5E8"/>
<path fill-rule="evenodd" clip-rule="evenodd" d="M1079 68.5593V224.898C1078.21 225.156 1077.42 225.404 1076.62 225.641C1016.73 243.391 959.705 190.529 972.868 129.474C983.709 79.189 1035.15 54.1219 1079 68.5593Z" fill="#28C5E8"/>
<path fill-rule="evenodd" clip-rule="evenodd" d="M935.604 450H735.876C728.393 433.515 725.944 414.337 730.612 394.429L742.427 344.037C757.807 278.446 838.69 254.471 887.329 301.087L924.696 336.9C957.804 368.631 958.902 416.794 935.604 450Z" fill="#28C5E8"/>
<path fill-rule="evenodd" clip-rule="evenodd" d="M112.249 450H0V335.127C29.6688 314.748 71.8974 314.728 101.748 342.456C133.874 372.298 134.931 418.573 112.249 450Z" fill="#28C5E8"/>
<path fill-rule="evenodd" clip-rule="evenodd" d="M246.156 0C263.623 46.8303 239.696 103.348 186.619 119.081L150.642 129.745C83.6774 149.594 20.2398 89.7234 36.184 21.7231L41.2775 0H246.156Z" fill="#28C5E8"/>
</svg>
