<svg width="19" height="15" viewBox="0 0 19 15" fill="none" xmlns="http://www.w3.org/2000/svg">
<path d="M12.5 5L15.0768 3.45392C15.8699 2.97803 16.2665 2.74009 16.5928 2.77051C16.8773 2.79703 17.1369 2.944 17.306 3.17433C17.5 3.43848 17.5 3.90095 17.5 4.8259V9.6741C17.5 10.599 17.5 11.0615 17.306 11.3257C17.1369 11.556 16.8773 11.703 16.5928 11.7295C16.2665 11.7599 15.8699 11.522 15.0768 11.0461L12.5 9.5M12.5 5V4.2C12.5 3.0799 12.5 2.51984 12.282 2.09202C12.0903 1.71569 11.7843 1.40973 11.408 1.21799C10.9802 1 10.4201 1 9.3 1H4.2C3.0799 1 2.51984 1 2.09202 1.21799C1.71569 1.40973 1.40973 1.71569 1.21799 2.09202C1 2.51984 1 3.07989 1 4.2V10.3C1 11.4201 1 11.9802 1.21799 12.408C1.40973 12.7843 1.71569 13.0903 2.09202 13.282C2.51984 13.5 3.07989 13.5 4.2 13.5H9.3C10.4201 13.5 10.9802 13.5 11.408 13.282C11.7843 13.0903 12.0903 12.7843 12.282 12.408C12.5 11.9802 12.5 11.4201 12.5 10.3V9.5M12.5 5V9.5" stroke="black" stroke-width="1.5" stroke-linejoin="round"/>
</svg>
