<svg width="23" height="21" viewBox="0 0 23 21" fill="none" xmlns="http://www.w3.org/2000/svg">
<path d="M11.9913 3.58494L13.4913 5.08494C13.5843 5.17867 13.6949 5.25306 13.8167 5.30383C13.9386 5.3546 14.0693 5.38074 14.2013 5.38074C14.3333 5.38074 14.464 5.3546 14.5859 5.30383C14.7077 5.25306 14.8183 5.17867 14.9113 5.08494C15.0631 4.92564 15.158 4.72075 15.1815 4.50199C15.205 4.28324 15.1558 4.06284 15.0413 3.87494H18.7013C18.9665 3.87494 19.2209 3.76958 19.4084 3.58205C19.5959 3.39451 19.7013 3.14016 19.7013 2.87494C19.7013 2.60972 19.5959 2.35537 19.4084 2.16783C19.2209 1.9803 18.9665 1.87494 18.7013 1.87494H15.0413C15.1558 1.68704 15.205 1.46664 15.1815 1.24789C15.158 1.02913 15.0631 0.824235 14.9113 0.664939C14.8183 0.57121 14.7077 0.496816 14.5859 0.446048C14.464 0.395279 14.3333 0.369141 14.2013 0.369141C14.0693 0.369141 13.9386 0.395279 13.8167 0.446048C13.6949 0.496816 13.5843 0.57121 13.4913 0.664939L11.9913 2.16494C11.9003 2.26004 11.8289 2.37219 11.7813 2.49494C11.6813 2.7384 11.6813 3.01148 11.7813 3.25494C11.8289 3.37769 11.9003 3.48984 11.9913 3.58494ZM22.6213 7.49494C22.5737 7.37219 22.5023 7.26004 22.4113 7.16494L20.9113 5.66494C20.8183 5.57121 20.7077 5.49682 20.5859 5.44605C20.464 5.39528 20.3333 5.36914 20.2013 5.36914C20.0693 5.36914 19.9386 5.39528 19.8167 5.44605C19.6949 5.49682 19.5843 5.57121 19.4913 5.66494C19.3395 5.82423 19.2445 6.02913 19.221 6.24789C19.1975 6.46664 19.2468 6.68704 19.3613 6.87494H15.7013C15.4361 6.87494 15.1817 6.9803 14.9942 7.16783C14.8067 7.35537 14.7013 7.60972 14.7013 7.87494C14.7013 8.14016 14.8067 8.39451 14.9942 8.58205C15.1817 8.76958 15.4361 8.87494 15.7013 8.87494H19.3613C19.2468 9.06284 19.1975 9.28324 19.221 9.50199C19.2445 9.72074 19.3395 9.92564 19.4913 10.0849C19.5843 10.1787 19.6949 10.2531 19.8167 10.3038C19.9386 10.3546 20.0693 10.3807 20.2013 10.3807C20.3333 10.3807 20.464 10.3546 20.5859 10.3038C20.7077 10.2531 20.8183 10.1787 20.9113 10.0849L22.4113 8.58494C22.5023 8.48984 22.5737 8.37769 22.6213 8.25494C22.7213 8.01148 22.7213 7.7384 22.6213 7.49494ZM10.5165 17C10.3203 17 8.73972 17 8.73972 17C8.73972 17 9.75598 14.1487 9.59015 14.0379C9.26126 13.8181 9.00491 13.5058 8.85353 13.1403C8.70216 12.7749 8.66255 12.3727 8.73972 11.9848C8.81689 11.5968 9.00738 11.2404 9.28708 10.9607C9.56679 10.681 9.92315 10.4905 10.3111 10.4134C10.6991 10.3362 11.1012 10.3758 11.4667 10.5272C11.8321 10.6786 12.1445 10.9349 12.3642 11.2638C12.584 11.5927 12.7013 12.3749 12.7013 12.3749C12.7013 12.9054 12.3751 13.6628 12 14.0379L12.7013 17C12.7013 17 10.7657 17 10.5165 17ZM19.7013 11.3749C19.4361 11.3749 19.1817 11.4803 18.9942 11.6678C18.8067 11.8554 18.7013 12.1097 18.7013 12.3749V17.3749C18.7013 17.6402 18.5959 17.8945 18.4084 18.082C18.2209 18.2696 17.9665 18.3749 17.7013 18.3749H3.70129C3.43608 18.3749 3.18172 18.2696 2.99419 18.082C2.80665 17.8945 2.70129 17.6402 2.70129 17.3749V9.37494C2.70129 9.10972 2.80665 8.85537 2.99419 8.66783C3.18172 8.4803 3.43608 8.37494 3.70129 8.37494H5.70129H6.38282H8.33157H9.81909H11.2013H12.7013L13.4913 8.24225C13.4913 8.24225 13.6292 8.21461 13.8167 8.02707C14.0043 7.83953 14.2013 7.50747 14.2013 7.24225C14.2013 6.97703 14.0043 6.92978 13.8167 6.74225C13.6292 6.55471 12.9665 6.37494 12.7013 6.37494H10.5165C9.88507 6.37471 8.33157 6.37494 8.33157 6.37494H6.38282H4.98129H3.70129C2.90564 6.37494 2.14258 6.69101 1.57997 7.25362C1.01736 7.81623 0.701294 8.57929 0.701294 9.37494V17.3749C0.701294 18.1706 1.01736 18.9337 1.57997 19.4963C2.14258 20.0589 2.90564 20.3749 3.70129 20.3749H17.7013C18.4969 20.3749 19.26 20.0589 19.8226 19.4963C20.3852 18.9337 20.7013 18.1706 20.7013 17.3749V12.3749C20.7013 12.1097 20.5959 11.8554 20.4084 11.6678C20.2209 11.4803 19.9665 11.3749 19.7013 11.3749Z" fill="white"/>
</svg>
