<svg width="23" height="20" viewBox="0 0 23 20" fill="none" xmlns="http://www.w3.org/2000/svg">
<path d="M12.2727 9.00069H1.02277C0.75153 9.00069 0.491396 9.10604 0.299599 9.29356C0.107802 9.48109 5.11415e-05 9.73543 5.11415e-05 10.0006V19.0001C5.11415e-05 19.2653 0.107802 19.5196 0.299599 19.7071C0.491396 19.8946 0.75153 20 1.02277 20H12.1295C12.1807 20 12.2216 20 12.2727 20C12.5439 20 12.8041 19.8946 12.9959 19.7071C13.1877 19.5196 13.2954 19.2653 13.2954 19.0001V10.0006C13.2954 9.73543 13.1877 9.48109 12.9959 9.29356C12.8041 9.10604 12.5439 9.00069 12.2727 9.00069ZM6.58637 18.0001L8.56022 16.0702C8.58821 16.029 8.62621 15.9952 8.67082 15.9717C8.71543 15.9483 8.76527 15.9361 8.81591 15.9361C8.86654 15.9361 8.91638 15.9483 8.96099 15.9717C9.0056 15.9952 9.0436 16.029 9.07159 16.0702L11.0352 18.0001H6.58637ZM11.25 15.3803L10.5136 14.6703C10.055 14.2419 9.44512 14.0028 8.81079 14.0028C8.17647 14.0028 7.56656 14.2419 7.10796 14.6703L3.69207 18.0001H2.04549V11.0006H11.25V15.3803ZM1.02277 2.11112C1.20026 2.11109 1.37468 2.0659 1.52889 1.97999C1.6831 1.89408 1.81179 1.77042 1.90231 1.62115C2.03236 1.43972 2.10038 1.22271 2.09663 1.00119C2.0968 0.865559 2.06875 0.731314 2.01419 0.606618C1.95963 0.481922 1.87969 0.369382 1.77923 0.275845C1.67878 0.182308 1.55992 0.109728 1.42987 0.062522C1.29983 0.0153157 1.16132 -0.00553075 1.02277 0.0012508C0.75153 0.0012508 0.491396 0.106601 0.299599 0.294126C0.107802 0.48165 5.11415e-05 0.735988 5.11415e-05 1.00119V1.10118C-0.00130056 1.23333 0.024155 1.36444 0.074946 1.48691C0.125737 1.60939 0.200856 1.7208 0.295959 1.81472C0.391062 1.90863 0.504263 1.98318 0.629017 2.03406C0.75377 2.08493 0.887601 2.11113 1.02277 2.11112ZM9.11249 2.00113H9.30681C9.57805 2.00113 9.83819 1.89578 10.03 1.70825C10.2218 1.52073 10.3295 1.26639 10.3295 1.00119C10.3295 0.735988 10.2218 0.48165 10.03 0.294126C9.83819 0.106601 9.57805 0.0012508 9.30681 0.0012508H9.11249C8.84125 0.0012508 8.58112 0.106601 8.38932 0.294126C8.19752 0.48165 8.08977 0.735988 8.08977 1.00119C8.08977 1.26639 8.19752 1.52073 8.38932 1.70825C8.58112 1.89578 8.84125 2.00113 9.11249 2.00113V2.00113ZM1.02277 6.78083C1.29401 6.78083 1.55415 6.67548 1.74594 6.48795C1.93774 6.30043 2.04549 6.04609 2.04549 5.78089V5.5609C2.04549 5.2957 1.93774 5.04136 1.74594 4.85384C1.55415 4.66632 1.29401 4.56097 1.02277 4.56097C0.75153 4.56097 0.491396 4.66632 0.299599 4.85384C0.107802 5.04136 5.11415e-05 5.2957 5.11415e-05 5.5609V5.78089C5.11415e-05 6.04609 0.107802 6.30043 0.299599 6.48795C0.491396 6.67548 0.75153 6.78083 1.02277 6.78083ZM13.3875 0.0012508H13.1932C12.9219 0.0012508 12.6618 0.106601 12.47 0.294126C12.2782 0.48165 12.1704 0.735988 12.1704 1.00119C12.1704 1.26639 12.2782 1.52073 12.47 1.70825C12.6618 1.89578 12.9219 2.00113 13.1932 2.00113H13.3875C13.6587 2.00113 13.9188 1.89578 14.1106 1.70825C14.3024 1.52073 14.4102 1.26639 14.4102 1.00119C14.4102 0.735988 14.3024 0.48165 14.1106 0.294126C13.9188 0.106601 13.6587 0.0012508 13.3875 0.0012508V0.0012508ZM5.02161 2.00113H5.21593C5.48717 2.00113 5.7473 1.89578 5.9391 1.70825C6.1309 1.52073 6.23865 1.26639 6.23865 1.00119C6.23865 0.735988 6.1309 0.48165 5.9391 0.294126C5.7473 0.106601 5.48717 0.0012508 5.21593 0.0012508H5.02161C4.75037 0.0012508 4.49024 0.106601 4.29844 0.294126C4.10664 0.48165 3.99889 0.735988 3.99889 1.00119C3.99889 1.26639 4.10664 1.52073 4.29844 1.70825C4.49024 1.89578 4.75037 2.00113 5.02161 2.00113ZM21.4772 4.40098C21.2059 4.40098 20.9458 4.50633 20.754 4.69385C20.5622 4.88137 20.4545 5.13571 20.4545 5.40091V5.6109C20.4545 5.8761 20.5622 6.13044 20.754 6.31796C20.9458 6.50549 21.2059 6.61084 21.4772 6.61084C21.7484 6.61084 22.0086 6.50549 22.2004 6.31796C22.3922 6.13044 22.4999 5.8761 22.4999 5.6109V5.40091C22.4999 5.13571 22.3922 4.88137 22.2004 4.69385C22.0086 4.50633 21.7484 4.40098 21.4772 4.40098ZM16.4863 18.0001H16.2409C15.9696 18.0001 15.7095 18.1055 15.5177 18.293C15.3259 18.4805 15.2181 18.7349 15.2181 19.0001C15.2181 19.2653 15.3259 19.5196 15.5177 19.7071C15.7095 19.8946 15.9696 20 16.2409 20H16.4863C16.7576 20 17.0177 19.8946 17.2095 19.7071C17.4013 19.5196 17.509 19.2653 17.509 19.0001C17.509 18.7349 17.4013 18.4805 17.2095 18.293C17.0177 18.1055 16.7576 18.0001 16.4863 18.0001ZM21.3749 0.0012508C21.1218 0.0261231 20.8872 0.142357 20.717 0.327254C20.5468 0.512152 20.4532 0.752437 20.4545 1.00119C20.4569 1.14679 20.4918 1.29012 20.5567 1.42116C20.6509 1.6187 20.8085 1.78074 21.0056 1.88262C21.2027 1.9845 21.4284 2.02065 21.6484 1.98555C21.8684 1.95046 22.0706 1.84604 22.2243 1.6882C22.3781 1.53036 22.4748 1.32774 22.4999 1.11118V1.00119C22.4766 0.726257 22.3476 0.470183 22.1388 0.284612C21.93 0.099041 21.6571 -0.00222032 21.3749 0.0012508ZM21.4772 8.90069C21.2059 8.90069 20.9458 9.00604 20.754 9.19357C20.5622 9.38109 20.4545 9.63543 20.4545 9.90063V10.1206C20.4545 10.3858 20.5622 10.6402 20.754 10.8277C20.9458 11.0152 21.2059 11.1206 21.4772 11.1206C21.7484 11.1206 22.0086 11.0152 22.2004 10.8277C22.3922 10.6402 22.4999 10.3858 22.4999 10.1206V9.90063C22.4999 9.63543 22.3922 9.38109 22.2004 9.19357C22.0086 9.00604 21.7484 8.90069 21.4772 8.90069ZM17.4784 0.0012508H17.284C17.0128 0.0012508 16.7527 0.106601 16.5609 0.294126C16.3691 0.48165 16.2613 0.735988 16.2613 1.00119C16.2613 1.26639 16.3691 1.52073 16.5609 1.70825C16.7527 1.89578 17.0128 2.00113 17.284 2.00113H17.4784C17.7496 2.00113 18.0097 1.89578 18.2015 1.70825C18.3933 1.52073 18.5011 1.26639 18.5011 1.00119C18.5011 0.735988 18.3933 0.48165 18.2015 0.294126C18.0097 0.106601 17.7496 0.0012508 17.4784 0.0012508V0.0012508ZM21.4772 18.0001C21.3202 17.9999 21.1656 18.0377 21.0272 18.1101C20.8566 18.1918 20.7127 18.3184 20.6115 18.4755C20.5104 18.6327 20.456 18.8144 20.4545 19.0001C20.4545 19.2653 20.5622 19.5196 20.754 19.7071C20.9458 19.8946 21.2059 20 21.4772 20C21.7584 19.9772 22.0203 19.8511 22.2101 19.647C22.3999 19.4428 22.5035 19.1759 22.4999 18.9001C22.4745 18.6526 22.3556 18.4232 22.1665 18.2568C21.9774 18.0904 21.7316 17.9989 21.4772 18.0001ZM21.4772 13.4404C21.2059 13.4404 20.9458 13.5458 20.754 13.7333C20.5622 13.9208 20.4545 14.1751 20.4545 14.4403V14.6603C20.4545 14.9255 20.5622 15.1799 20.754 15.3674C20.9458 15.5549 21.2059 15.6603 21.4772 15.6603C21.7484 15.6603 22.0086 15.5549 22.2004 15.3674C22.3922 15.1799 22.4999 14.9255 22.4999 14.6603V14.4003C22.4999 14.1351 22.3922 13.8808 22.2004 13.6933C22.0086 13.5058 21.7484 13.4004 21.4772 13.4004V13.4404Z" fill="white"/>
</svg>
