<svg width="19" height="17" viewBox="0 0 19 17" fill="none" xmlns="http://www.w3.org/2000/svg">
<path d="M18.3654 0.400747C18.1195 0.200351 17.8228 0.0690136 17.5067 0.0207131C17.1907 -0.0275873 16.8672 0.00895618 16.5706 0.126455L1.0931 6.2478C0.762101 6.38121 0.480347 6.61006 0.285232 6.904C0.090117 7.19793 -0.00913107 7.54305 0.000660669 7.89353C0.0104524 8.24401 0.128821 8.58329 0.340055 8.86633C0.55129 9.14937 0.8454 9.36279 1.18335 9.47826L4.31411 10.5449L6.05914 16.1978C6.08285 16.2733 6.11727 16.3452 6.16138 16.4113C6.16807 16.4215 6.17751 16.429 6.18463 16.4389C6.23559 16.5085 6.29717 16.5701 6.36723 16.6214C6.38715 16.6363 6.40623 16.6502 6.42753 16.6634C6.50952 16.7167 6.60032 16.7557 6.69589 16.7786L6.70612 16.7794L6.71192 16.7819C6.76938 16.7933 6.82786 16.7991 6.8865 16.7992C6.89214 16.7992 6.89715 16.7966 6.90274 16.7965C6.99123 16.795 7.07895 16.78 7.16278 16.7522C7.18228 16.7457 7.19899 16.7348 7.21792 16.727C7.28043 16.7016 7.33965 16.6691 7.39435 16.6301C7.43816 16.5939 7.48198 16.5578 7.52582 16.5216L9.85956 13.9976L13.3403 16.6389C13.6468 16.8726 14.024 16.9997 14.4123 17C14.8193 16.9995 15.2137 16.8619 15.5294 16.6104C15.8451 16.3589 16.0629 16.0087 16.1464 15.6186L18.9643 2.06803C19.0281 1.76305 19.0061 1.44681 18.9006 1.15312C18.7952 0.859441 18.6102 0.599374 18.3654 0.400747ZM7.22896 10.8142C7.10921 10.9311 7.02735 11.08 6.99365 11.2422L6.72634 12.5146L6.04918 10.3208L9.56017 8.52981L7.22896 10.8142ZM14.3989 15.3013L10.2855 12.1799C10.1134 12.0496 9.89753 11.9877 9.68089 12.0064C9.46425 12.025 9.26274 12.123 9.11652 12.2807L8.3691 13.0888L8.63325 11.8313L14.7505 5.8388C14.8966 5.69596 14.9855 5.50661 15.0013 5.30506C15.0171 5.10351 14.9587 4.90308 14.8367 4.74007C14.7146 4.57707 14.537 4.46228 14.336 4.41648C14.135 4.37069 13.9239 4.39692 13.741 4.49044L4.96164 8.96818L1.74507 7.81511L17.2723 1.73009L14.3989 15.3013Z" fill="#4F4F4F"/>
</svg>
