<svg width="25" height="25" viewBox="0 0 25 25" fill="none" xmlns="http://www.w3.org/2000/svg">
<circle cx="12.5" cy="12.5" r="12.5" fill="white"/>
<path d="M14.0625 7.22656C14.0625 6.57935 13.5378 6.05469 12.8906 6.05469H12.1094C11.4622 6.05469 10.9375 6.57935 10.9375 7.22656V7.78475C10.9375 8.13276 10.5167 8.30704 10.2707 8.06096L9.87597 7.66628C9.41833 7.20863 8.67634 7.20863 8.21869 7.66628L7.66627 8.2187C7.20862 8.67635 7.20862 9.41834 7.66627 9.87598L8.06094 10.2707C8.30702 10.5167 8.13274 10.9375 7.78473 10.9375L7.22656 10.9375C6.57935 10.9375 6.05469 11.4622 6.05469 12.1094L6.05469 12.8906C6.05469 13.5378 6.57935 14.0625 7.22656 14.0625H7.78471C8.13272 14.0625 8.307 14.4833 8.06092 14.7293L7.66626 15.124C7.20862 15.5816 7.20862 16.3236 7.66626 16.7813L8.21869 17.3337C8.67633 17.7914 9.41832 17.7914 9.87597 17.3337L10.2707 16.939C10.5167 16.6929 10.9375 16.8672 10.9375 17.2152V17.7734C10.9375 18.4206 11.4622 18.9453 12.1094 18.9453H12.8906C13.5378 18.9453 14.0625 18.4206 14.0625 17.7734V17.2153C14.0625 16.8673 14.4833 16.693 14.7293 16.9391L15.124 17.3337C15.5817 17.7914 16.3237 17.7914 16.7813 17.3338L17.3337 16.7813C17.7914 16.3237 17.7914 15.5817 17.3337 15.124L16.939 14.7293C16.693 14.4833 16.8672 14.0625 17.2153 14.0625H17.7734C18.4206 14.0625 18.9453 13.5378 18.9453 12.8906V12.1094C18.9453 11.4622 18.4206 10.9375 17.7734 10.9375L17.2152 10.9375C16.8672 10.9375 16.6929 10.5167 16.939 10.2707L17.3337 9.87594C17.7914 9.41829 17.7914 8.6763 17.3337 8.21866L16.7813 7.66623C16.3237 7.20858 15.5817 7.20858 15.124 7.66623L14.7293 8.06092C14.4833 8.307 14.0625 8.13272 14.0625 7.78471V7.22656Z" stroke="#FF5775" stroke-width="1.5" stroke-linejoin="round"/>
<path d="M14.6484 12.5C14.6484 13.6865 13.6865 14.6484 12.5 14.6484C11.3135 14.6484 10.3516 13.6865 10.3516 12.5C10.3516 11.3135 11.3135 10.3516 12.5 10.3516C13.6865 10.3516 14.6484 11.3135 14.6484 12.5Z" stroke="#FF5775" stroke-width="1.5" stroke-linejoin="round"/>
</svg>
