<svg width="25" height="25" viewBox="0 0 25 25" fill="none" xmlns="http://www.w3.org/2000/svg">
<path d="M21.1804 14.4099V14.3999C20.3004 13.4699 19.0704 12.8999 17.7004 12.8999C15.0504 12.8999 12.9004 15.0499 12.9004 17.6999C12.9004 18.9299 13.3704 20.0499 14.1304 20.8999C15.0104 21.8799 16.2804 22.4999 17.7004 22.4999C20.3504 22.4999 22.5004 20.3499 22.5004 17.6999C22.5004 16.4299 22.0004 15.2699 21.1804 14.4099ZM19.4904 18.5099H18.4504V19.5999C18.4504 20.0099 18.1104 20.3499 17.7004 20.3499C17.2904 20.3499 16.9504 20.0099 16.9504 19.5999V18.5099H15.9104C15.4904 18.5099 15.1604 18.1799 15.1604 17.7599C15.1604 17.3499 15.4804 17.0199 15.9004 17.0099H16.9504V16.0099C16.9504 15.9899 16.9504 15.9699 16.9604 15.9499C16.9804 15.5699 17.3104 15.2599 17.7004 15.2599C18.1004 15.2599 18.4304 15.5799 18.4504 15.9799V17.0099H19.4904C19.9104 17.0099 20.2404 17.3499 20.2404 17.7599C20.2404 18.1799 19.9104 18.5099 19.4904 18.5099Z" fill="#FF002E"/>
<path d="M22.5 9.23014C22.5 10.4201 22.31 11.5201 21.98 12.5401C21.92 12.7501 21.67 12.8101 21.49 12.6801C20.4 11.8701 19.07 11.4401 17.7 11.4401C14.23 11.4401 11.4 14.2701 11.4 17.7401C11.4 18.8201 11.68 19.8801 12.21 20.8201C12.37 21.1001 12.18 21.4601 11.88 21.3501C9.47 20.5301 4.6 17.5401 3.02 12.5401C2.69 11.5201 2.5 10.4201 2.5 9.23014C2.5 6.14014 4.99 3.64014 8.06 3.64014C9.87 3.64014 11.49 4.52014 12.5 5.87014C13.51 4.52014 15.13 3.64014 16.94 3.64014C20.01 3.64014 22.5 6.14014 22.5 9.23014Z" fill="#FF002E"/>
</svg>
