<svg width="16" height="20" viewBox="0 0 16 20" fill="none" xmlns="http://www.w3.org/2000/svg">
<path d="M4 14.5C3.80222 14.5 3.60888 14.5586 3.44443 14.6685C3.27998 14.7784 3.15181 14.9346 3.07612 15.1173C3.00043 15.3 2.98063 15.5011 3.01921 15.6951C3.0578 15.8891 3.15304 16.0673 3.29289 16.2071C3.43275 16.347 3.61093 16.4422 3.80491 16.4808C3.99889 16.5194 4.19996 16.4996 4.38268 16.4239C4.56541 16.3482 4.72159 16.22 4.83147 16.0556C4.94135 15.8911 5 15.6978 5 15.5C5 15.2348 4.89464 14.9804 4.70711 14.7929C4.51957 14.6054 4.26522 14.5 4 14.5ZM8 0C4 0 0 1.37 0 4V16C0 18.63 4 20 8 20C12 20 16 18.63 16 16V4C16 1.37 12 0 8 0ZM14 16C14 16.71 11.72 18 8 18C4.28 18 2 16.71 2 16V12.73C3.87207 13.62 5.92789 14.0551 8 14C10.0721 14.0551 12.1279 13.62 14 12.73V16ZM14 10C14 10.71 11.72 12 8 12C4.28 12 2 10.71 2 10V6.73C3.87207 7.61996 5.92789 8.05511 8 8C10.0721 8.05511 12.1279 7.61996 14 6.73V10ZM8 6C4.28 6 2 4.71 2 4C2 3.29 4.28 2 8 2C11.72 2 14 3.29 14 4C14 4.71 11.72 6 8 6ZM4 8.5C3.80222 8.5 3.60888 8.55865 3.44443 8.66853C3.27998 8.77841 3.15181 8.93459 3.07612 9.11732C3.00043 9.30004 2.98063 9.50111 3.01921 9.69509C3.0578 9.88907 3.15304 10.0673 3.29289 10.2071C3.43275 10.347 3.61093 10.4422 3.80491 10.4808C3.99889 10.5194 4.19996 10.4996 4.38268 10.4239C4.56541 10.3482 4.72159 10.22 4.83147 10.0556C4.94135 9.89112 5 9.69778 5 9.5C5 9.23478 4.89464 8.98043 4.70711 8.79289C4.51957 8.60536 4.26522 8.5 4 8.5Z" fill="#4F4F4F"/>
</svg>
