<svg width="33" height="34" viewBox="0 0 33 34" fill="none" xmlns="http://www.w3.org/2000/svg">
<path d="M16.5 3.36426C8.90611 3.36426 2.75 9.52037 2.75 17.1143C2.75 23.1958 6.7027 28.3462 12.1758 30.16C12.8422 30.264 13.0969 29.8627 13.0969 29.5068C13.0969 29.1802 13.0797 28.0975 13.0797 26.9459C9.625 27.5818 8.73122 26.1037 8.45628 25.3303C8.15106 24.5781 7.66732 23.9115 7.04688 23.3881C6.56565 23.1303 5.87815 22.4943 7.02967 22.4771C7.92204 22.574 8.71116 23.1 9.14379 23.8865C9.14514 23.889 9.14647 23.8913 9.14782 23.8937C9.94132 25.3097 11.7324 25.8143 13.1485 25.0208C13.2079 24.3218 13.5195 23.6682 14.025 23.1818C10.9657 22.8381 7.76879 21.6521 7.76879 16.3928C7.7494 15.0261 8.2537 13.704 9.17811 12.6974C8.75773 11.5097 8.80692 10.2063 9.31565 9.05366C9.31565 9.05366 10.4672 8.69271 13.0969 10.4631C15.3468 9.84422 17.722 9.84422 19.9719 10.4631C22.6016 8.6755 23.7532 9.05366 23.7532 9.05366C24.2618 10.2063 24.311 11.5097 23.8906 12.6974C24.8178 13.7023 25.3225 15.0256 25.3 16.3928C25.3 21.6693 22.0859 22.8381 19.0266 23.1818C19.6906 23.8547 20.0293 24.7831 19.9547 25.7255C19.9547 27.5646 19.9375 29.0428 19.9375 29.5068C19.9366 29.5801 19.9475 29.653 19.9699 29.7227C20.0843 30.0786 20.4651 30.2743 20.821 30.1611C26.2959 28.3482 30.25 23.197 30.25 17.1143C30.25 9.52037 24.0939 3.36426 16.5 3.36426Z" fill="white"/>
</svg>
