<svg width="18" height="17" viewBox="0 0 18 17" fill="none" xmlns="http://www.w3.org/2000/svg">
<path d="M15.9269 2.38022C14.9938 1.45684 13.7615 0.897335 12.4523 0.80267C11.143 0.708004 9.843 1.08441 8.78686 1.86397C7.67356 1.03591 6.28785 0.66042 4.90879 0.813131C3.52973 0.965841 2.25975 1.6354 1.35459 2.68698C0.44943 3.73857 -0.0236683 5.09405 0.0305632 6.48049C0.0847946 7.86692 0.662328 9.18131 1.64686 10.159L6.89686 15.4527C7.38905 15.9443 8.05623 16.2204 8.75186 16.2204C9.44749 16.2204 10.1147 15.9443 10.6069 15.4527L15.8569 10.159C16.3739 9.65379 16.7861 9.0514 17.0696 8.38643C17.3531 7.72145 17.5024 7.00701 17.5089 6.28415C17.5154 5.56129 17.379 4.84427 17.1075 4.17431C16.836 3.50434 16.4347 2.89463 15.9269 2.38022ZM14.6931 8.90772L9.44311 14.1577C9.36177 14.2397 9.26499 14.3048 9.15837 14.3493C9.05174 14.3937 8.93737 14.4165 8.82186 14.4165C8.70635 14.4165 8.59198 14.3937 8.48536 14.3493C8.37873 14.3048 8.28195 14.2397 8.20061 14.1577L2.95061 8.90772C2.2644 8.20627 1.88015 7.26401 1.88015 6.28272C1.88015 5.30144 2.2644 4.35917 2.95061 3.65772C3.64987 2.96734 4.59296 2.58022 5.57561 2.58022C6.55826 2.58022 7.50135 2.96734 8.20061 3.65772C8.28195 3.73974 8.37873 3.80483 8.48536 3.84925C8.59198 3.89368 8.70635 3.91655 8.82186 3.91655C8.93737 3.91655 9.05174 3.89368 9.15837 3.84925C9.26499 3.80483 9.36177 3.73974 9.44311 3.65772C10.1613 3.08625 11.0647 2.79911 11.981 2.85105C12.8973 2.903 13.7625 3.29041 14.4114 3.93939C15.0604 4.58837 15.4478 5.45351 15.4998 6.36984C15.5517 7.28616 15.2646 8.18955 14.6931 8.90772Z" fill="#FF0000"/>
</svg>
