<svg width="64" height="28" viewBox="0 0 64 28" fill="none" xmlns="http://www.w3.org/2000/svg">
<rect x="0.5" y="0.5" width="63" height="27" rx="10" fill="#FF5372"/>
<path d="M21.1252 7.78884C21.097 7.68179 21.0409 7.58414 20.9627 7.50587C20.8844 7.42759 20.7867 7.37148 20.6797 7.34328C19.3976 7.01028 18.0475 7.04614 16.7849 7.44675C15.5222 7.84736 14.3984 8.59643 13.5428 9.6077L12.846 10.4351L11.218 10.0423C10.8222 9.90431 10.3899 9.9142 10.0008 10.0701C9.61175 10.2261 9.29225 10.5175 9.10131 10.8907L7.7262 13.3281C7.67801 13.4135 7.65059 13.509 7.64615 13.6069C7.64171 13.7048 7.66037 13.8025 7.70062 13.8918C7.74087 13.9812 7.80159 14.0599 7.87787 14.1215C7.95415 14.1831 8.04384 14.2258 8.13971 14.2463L10.0602 14.658C9.89749 15.1532 9.78133 15.6625 9.7132 16.1793C9.70084 16.2743 9.71046 16.3708 9.74131 16.4614C9.77215 16.5521 9.82341 16.6344 9.89111 16.7021L11.8287 18.6397C11.8867 18.6977 11.9556 18.7438 12.0314 18.7752C12.1072 18.8066 12.1885 18.8228 12.2705 18.8228C12.2886 18.8228 12.3066 18.8219 12.3249 18.8203C12.8532 18.7728 13.3751 18.6702 13.8821 18.5141L14.2844 20.3911C14.305 20.4869 14.3478 20.5766 14.4094 20.6528C14.4709 20.7291 14.5496 20.7898 14.639 20.83C14.7284 20.8703 14.8259 20.8889 14.9239 20.8845C15.0218 20.8801 15.1173 20.8527 15.2027 20.8046L17.6435 19.4279C17.987 19.2192 18.2553 18.9067 18.4098 18.5356C18.5643 18.1645 18.5968 17.7539 18.5028 17.3631L18.0849 15.6387L18.8581 14.9278C19.8731 14.0746 20.6251 12.9507 21.0264 11.6869C21.4278 10.4231 21.462 9.07135 21.1252 7.78884ZM9.23224 13.2021L10.2048 11.4772C10.2652 11.3601 10.3682 11.2706 10.4925 11.2269C10.6168 11.1833 10.7531 11.1889 10.8735 11.2425L11.9469 11.5026L11.5406 11.985C11.1555 12.4466 10.8223 12.9493 10.5473 13.4838L9.23224 13.2021ZM17.0261 18.3409L15.3287 19.2982L15.0603 18.0453C15.6044 17.7739 16.1114 17.4337 16.5687 17.0329L17.0334 16.6056L17.2855 17.646C17.3182 17.7745 17.3109 17.9098 17.2645 18.034C17.2182 18.1582 17.135 18.2653 17.0261 18.3409ZM18.035 13.9876L15.7322 16.104C14.8207 16.8923 13.6963 17.3933 12.5007 17.5441L10.998 16.0414C11.1998 14.8427 11.7178 13.7195 12.4985 12.7877L13.5475 11.5422C13.565 11.524 13.5813 11.5046 13.5963 11.4843L14.4932 10.4195C15.1563 9.63627 16.0153 9.04309 16.9827 8.70049C17.95 8.35789 18.9909 8.27814 19.9991 8.46939C20.195 9.48078 20.1161 10.5262 19.7707 11.4967C19.4252 12.4672 18.8259 13.3274 18.035 13.9876ZM17.4582 10.1352C17.2727 10.1352 17.0915 10.1902 16.9373 10.2932C16.7831 10.3963 16.663 10.5427 16.592 10.714C16.5211 10.8853 16.5025 11.0738 16.5387 11.2556C16.5748 11.4375 16.6641 11.6045 16.7952 11.7357C16.9264 11.8668 17.0934 11.9561 17.2753 11.9922C17.4571 12.0284 17.6456 12.0098 17.8169 11.9389C17.9882 11.8679 18.1346 11.7478 18.2377 11.5936C18.3407 11.4394 18.3957 11.2582 18.3957 11.0727C18.3957 10.9496 18.3714 10.8277 18.3243 10.714C18.2772 10.6002 18.2081 10.4969 18.1211 10.4098C18.034 10.3227 17.9307 10.2537 17.8169 10.2066C17.7032 10.1595 17.5813 10.1352 17.4581 10.1352L17.4582 10.1352Z" fill="white"/>
<path d="M34.319 9.9H36.425V19H34.319V9.9ZM30.185 19H28.079V9.9H30.185V19ZM34.475 15.269H30.029V13.488H34.475V15.269ZM42.998 19.156C42.2787 19.156 41.6114 19.039 40.996 18.805C40.3894 18.571 39.8607 18.2417 39.41 17.817C38.968 17.3923 38.6214 16.894 38.37 16.322C38.1274 15.75 38.006 15.126 38.006 14.45C38.006 13.774 38.1274 13.15 38.37 12.578C38.6214 12.006 38.9724 11.5077 39.423 11.083C39.8737 10.6583 40.4024 10.329 41.009 10.095C41.6157 9.861 42.2744 9.744 42.985 9.744C43.7044 9.744 44.363 9.861 44.961 10.095C45.5677 10.329 46.092 10.6583 46.534 11.083C46.9847 11.5077 47.3357 12.006 47.587 12.578C47.8384 13.1413 47.964 13.7653 47.964 14.45C47.964 15.126 47.8384 15.7543 47.587 16.335C47.3357 16.907 46.9847 17.4053 46.534 17.83C46.092 18.246 45.5677 18.571 44.961 18.805C44.363 19.039 43.7087 19.156 42.998 19.156ZM42.985 17.362C43.3924 17.362 43.765 17.2927 44.103 17.154C44.4497 17.0153 44.753 16.816 45.013 16.556C45.273 16.296 45.4724 15.9883 45.611 15.633C45.7584 15.2777 45.832 14.8833 45.832 14.45C45.832 14.0167 45.7584 13.6223 45.611 13.267C45.4724 12.9117 45.273 12.604 45.013 12.344C44.7617 12.084 44.4627 11.8847 44.116 11.746C43.7694 11.6073 43.3924 11.538 42.985 11.538C42.5777 11.538 42.2007 11.6073 41.854 11.746C41.516 11.8847 41.217 12.084 40.957 12.344C40.697 12.604 40.4934 12.9117 40.346 13.267C40.2074 13.6223 40.138 14.0167 40.138 14.45C40.138 14.8747 40.2074 15.269 40.346 15.633C40.4934 15.9883 40.6927 16.296 40.944 16.556C41.204 16.816 41.5074 17.0153 41.854 17.154C42.2007 17.2927 42.5777 17.362 42.985 17.362ZM51.3048 19V11.616H48.3928V9.9H56.3228V11.616H53.4108V19H51.3048Z" fill="white"/>
</svg>
