<svg width="17" height="17" viewBox="0 0 17 17" fill="none" xmlns="http://www.w3.org/2000/svg">
<path d="M13.6 7.497C13.3746 7.497 13.1584 7.58655 12.999 7.74596C12.8396 7.90537 12.75 8.12157 12.75 8.347V14.45C12.75 14.6754 12.6604 14.8916 12.501 15.051C12.3416 15.2104 12.1254 15.3 11.9 15.3H2.55C2.32457 15.3 2.10837 15.2104 1.94896 15.051C1.78955 14.8916 1.7 14.6754 1.7 14.45V5.1C1.7 4.87457 1.78955 4.65837 1.94896 4.49896C2.10837 4.33955 2.32457 4.25 2.55 4.25H8.653C8.87843 4.25 9.09463 4.16045 9.25404 4.00104C9.41345 3.84164 9.503 3.62543 9.503 3.4C9.503 3.17457 9.41345 2.95837 9.25404 2.79896C9.09463 2.63955 8.87843 2.55 8.653 2.55H2.55C1.8737 2.55 1.2251 2.81866 0.746878 3.29688C0.26866 3.7751 0 4.4237 0 5.1V14.45C0 15.1263 0.26866 15.7749 0.746878 16.2531C1.2251 16.7313 1.8737 17 2.55 17H11.9C12.5763 17 13.2249 16.7313 13.7031 16.2531C14.1813 15.7749 14.45 15.1263 14.45 14.45V8.347C14.45 8.12157 14.3604 7.90537 14.201 7.74596C14.0416 7.58655 13.8254 7.497 13.6 7.497ZM16.932 0.527C16.8457 0.319303 16.6807 0.154254 16.473 0.0679999C16.3708 0.0244451 16.2611 0.00134299 16.15 0H11.05C10.8246 0 10.6084 0.0895533 10.449 0.248959C10.2896 0.408365 10.2 0.624566 10.2 0.85C10.2 1.07543 10.2896 1.29163 10.449 1.45104C10.6084 1.61045 10.8246 1.7 11.05 1.7H14.1015L5.3465 10.4465C5.26683 10.5255 5.2036 10.6195 5.16044 10.7231C5.11729 10.8267 5.09507 10.9378 5.09507 11.05C5.09507 11.1622 5.11729 11.2733 5.16044 11.3769C5.2036 11.4805 5.26683 11.5745 5.3465 11.6535C5.42552 11.7332 5.51953 11.7964 5.62311 11.8396C5.72669 11.8827 5.83779 11.9049 5.95 11.9049C6.06221 11.9049 6.17331 11.8827 6.27689 11.8396C6.38047 11.7964 6.47448 11.7332 6.5535 11.6535L15.3 2.8985V5.95C15.3 6.17543 15.3896 6.39163 15.549 6.55104C15.7084 6.71045 15.9246 6.8 16.15 6.8C16.3754 6.8 16.5916 6.71045 16.751 6.55104C16.9104 6.39163 17 6.17543 17 5.95V0.85C16.9987 0.738924 16.9756 0.629189 16.932 0.527Z" fill="black"/>
</svg>
