<svg width="17" height="21" viewBox="0 0 17 21" fill="none" xmlns="http://www.w3.org/2000/svg">
<path d="M0 10.5C0 10.7785 0.109473 11.0455 0.304335 11.2425C0.499197 11.4394 0.763486 11.55 1.03906 11.55H8.92555L6.5357 13.9545C6.43831 14.0521 6.36101 14.1682 6.30826 14.2962C6.25551 14.4241 6.22835 14.5614 6.22835 14.7C6.22835 14.8386 6.25551 14.9759 6.30826 15.1038C6.36101 15.2318 6.43831 15.3479 6.5357 15.4455C6.6323 15.5439 6.74722 15.622 6.87384 15.6753C7.00046 15.7286 7.13627 15.7561 7.27344 15.7561C7.41061 15.7561 7.54642 15.7286 7.67304 15.6753C7.79966 15.622 7.91458 15.5439 8.01117 15.4455L12.1674 11.2455C12.262 11.1456 12.3362 11.0279 12.3856 10.899C12.4895 10.6434 12.4895 10.3566 12.3856 10.101C12.3362 9.97211 12.262 9.85436 12.1674 9.7545L8.01117 5.5545C7.91429 5.4566 7.79928 5.37894 7.6727 5.32596C7.54612 5.27297 7.41045 5.2457 7.27344 5.2457C7.13643 5.2457 7.00076 5.27297 6.87418 5.32596C6.7476 5.37894 6.63258 5.4566 6.5357 5.5545C6.43882 5.6524 6.36197 5.76862 6.30954 5.89654C6.25711 6.02445 6.23012 6.16155 6.23012 6.3C6.23012 6.43845 6.25711 6.57555 6.30954 6.70346C6.36197 6.83138 6.43882 6.9476 6.5357 7.0455L8.92555 9.45H1.03906C0.763486 9.45 0.499197 9.56062 0.304335 9.75754C0.109473 9.95445 0 10.2215 0 10.5ZM13.5078 0H3.11719C2.29046 0 1.49759 0.331874 0.913003 0.922614C0.328417 1.51335 0 2.31457 0 3.15V6.3C0 6.57848 0.109473 6.84555 0.304335 7.04246C0.499197 7.23937 0.763486 7.35 1.03906 7.35C1.31464 7.35 1.57893 7.23937 1.77379 7.04246C1.96865 6.84555 2.07812 6.57848 2.07812 6.3V3.15C2.07812 2.87152 2.1876 2.60445 2.38246 2.40754C2.57732 2.21062 2.84161 2.1 3.11719 2.1H13.5078C13.7834 2.1 14.0477 2.21062 14.2425 2.40754C14.4374 2.60445 14.5469 2.87152 14.5469 3.15V17.85C14.5469 18.1285 14.4374 18.3955 14.2425 18.5925C14.0477 18.7894 13.7834 18.9 13.5078 18.9H3.11719C2.84161 18.9 2.57732 18.7894 2.38246 18.5925C2.1876 18.3955 2.07812 18.1285 2.07812 17.85V14.7C2.07812 14.4215 1.96865 14.1545 1.77379 13.9575C1.57893 13.7606 1.31464 13.65 1.03906 13.65C0.763486 13.65 0.499197 13.7606 0.304335 13.9575C0.109473 14.1545 0 14.4215 0 14.7V17.85C0 18.6854 0.328417 19.4866 0.913003 20.0774C1.49759 20.6681 2.29046 21 3.11719 21H13.5078C14.3345 21 15.1274 20.6681 15.712 20.0774C16.2966 19.4866 16.625 18.6854 16.625 17.85V3.15C16.625 2.31457 16.2966 1.51335 15.712 0.922614C15.1274 0.331874 14.3345 0 13.5078 0Z" fill="black"/>
</svg>
