<svg width="103" height="20" viewBox="0 0 995 193" fill="none" xmlns="http://www.w3.org/2000/svg">
<path fill-rule="evenodd" clip-rule="evenodd" d="M164.407 1H38.6508L3.53951 80.1951C1.98697 84.4953 -0.903219 93.5974 2.82289 105.638C6.54899 117.678 19.9009 125.108 25.7528 126.064H37.2177C40.4422 125.825 48.1811 124.344 53.3403 120.33C59.7893 115.313 64.447 109.221 68.7463 103.846C75.4885 95.4168 77.3127 86.9116 82.7192 79.4784C88.862 71.033 99.7183 63.5676 115.681 65.5028C127.504 66.9362 133.237 72.7892 134.67 74.4615C138.133 77.4478 144.702 88.6522 143.268 98.1126C141.586 109.221 138.969 113.163 137.536 116.747C136.389 119.614 134.192 124.153 133.237 126.064L104.574 192H212.416L249.319 108.505C250.633 103.01 253.081 92.0453 247.496 81.6285C241.732 70.878 234.988 65.5028 224.598 65.5028H136.103L164.407 1ZM151.509 116.747L159.033 100.263C160.734 96.5358 162.966 96.5597 164.049 96.6792H176.23C178.237 97.5392 178.26 100.382 178.022 101.696C175.752 106.713 170.999 117.248 170.139 119.255C169.28 121.262 166.915 122.003 165.84 122.122H154.017C151.437 120.975 151.27 118.061 151.509 116.747ZM208.475 116.747L215.999 100.263C217.7 96.5358 219.932 96.5597 221.015 96.6792H233.197C235.203 97.5392 235.227 100.382 234.988 101.696C232.719 106.713 227.966 117.248 227.106 119.255C226.246 121.262 223.881 122.002 222.806 122.122H210.983C208.404 120.975 208.236 118.061 208.475 116.747ZM130.012 172.291L137.536 155.807C139.237 152.08 141.469 152.104 142.552 152.223H154.733C156.74 153.083 156.764 155.926 156.525 157.24C154.256 162.257 149.503 172.792 148.643 174.799C147.783 176.806 145.418 177.547 144.343 177.666H132.52C129.941 176.519 129.773 173.605 130.012 172.291ZM187.695 172.291L195.219 155.807C196.92 152.08 199.152 152.104 200.235 152.223H212.416C214.423 153.083 214.447 155.926 214.208 157.24C211.939 162.257 207.186 172.792 206.326 174.799C205.466 176.806 203.101 177.547 202.026 177.666H190.203C187.623 176.519 187.456 173.605 187.695 172.291ZM24.382 91.6623L31.9059 75.1782C33.607 71.4514 35.8392 71.4753 36.9218 71.5947H49.1033C51.1097 72.4548 51.1336 75.2977 50.8947 76.6116C48.6256 81.6285 43.8724 92.164 43.0126 94.1707C42.1527 96.1775 39.7881 96.9181 38.7132 97.0375H26.89C24.3104 95.8908 24.1432 92.9762 24.382 91.6623ZM45.8164 35.4015L53.3403 18.9174C55.0413 15.1906 57.2736 15.2145 58.3562 15.334H70.5377C72.5441 16.194 72.568 19.0369 72.3291 20.3508C70.06 25.3677 65.3068 35.9032 64.447 37.9099C63.5871 39.9167 61.2224 40.6573 60.1476 40.7767H48.3244C45.7448 39.63 45.5776 36.7154 45.8164 35.4015ZM103.141 35.4015L110.665 18.9174C112.366 15.1906 114.598 15.2145 115.681 15.334H127.862C129.869 16.194 129.893 19.0369 129.654 20.3508C127.385 25.3677 122.632 35.9032 121.772 37.9099C120.912 39.9167 118.547 40.6573 117.472 40.7767H105.649C103.069 39.63 102.902 36.7154 103.141 35.4015Z" fill="#FF5775"/>
<path fill-rule="evenodd" clip-rule="evenodd" d="M37.2177 126.064H85.2272H133.237C134.192 124.153 136.389 119.614 137.536 116.747C138.969 113.163 141.586 109.221 143.268 98.1126C144.702 88.6522 138.133 77.4478 134.67 74.4615C133.237 72.7892 127.504 66.9362 115.681 65.5028C99.7183 63.5676 88.862 71.033 82.7192 79.4784C77.3127 86.9116 75.4885 95.4168 68.7463 103.846C64.447 109.221 59.7893 115.313 53.3403 120.33C48.1811 124.344 40.4422 125.825 37.2177 126.064ZM82.7192 107.43L90.2431 90.9456C91.9441 87.2188 94.1764 87.2427 95.259 87.3621C96.3416 87.4816 107.44 87.3621 107.44 87.3621C109.447 88.2221 109.471 91.065 109.232 92.379C106.963 97.3959 102.21 107.931 101.35 109.938C100.49 111.945 98.1252 112.685 97.0504 112.805H85.2272C82.6476 111.658 82.4804 108.744 82.7192 107.43Z" fill="#FFC6D0"/>
<path d="M133.237 126.064L104.574 192H212.416L249.319 108.505C250.633 103.01 253.081 92.0453 247.496 81.6285C241.732 70.878 234.988 65.5028 224.598 65.5028H136.103L164.407 1H38.6508L3.53951 80.1951C1.98697 84.4953 -0.903219 93.5974 2.82289 105.638C6.54899 117.678 19.9009 125.108 25.7528 126.064H37.2177M133.237 126.064C134.192 124.153 136.389 119.614 137.536 116.747C138.969 113.163 141.586 109.221 143.268 98.1126C144.702 88.6522 138.133 77.4478 134.67 74.4615C133.237 72.7892 127.504 66.9362 115.681 65.5028C99.7183 63.5676 88.862 71.033 82.7192 79.4784C77.3127 86.9116 75.4885 95.4168 68.7463 103.846C64.447 109.221 59.7893 115.313 53.3403 120.33C48.1811 124.344 40.4422 125.825 37.2177 126.064M133.237 126.064H85.2272H37.2177M159.033 100.263L151.509 116.747C151.27 118.061 151.437 120.975 154.017 122.122H165.84C166.915 122.003 169.28 121.262 170.139 119.255C170.999 117.248 175.752 106.713 178.022 101.696C178.26 100.382 178.237 97.5392 176.23 96.6792H164.049C162.966 96.5597 160.734 96.5358 159.033 100.263ZM215.999 100.263L208.475 116.747C208.236 118.061 208.404 120.975 210.983 122.122H222.806C223.881 122.002 226.246 121.262 227.106 119.255C227.966 117.248 232.719 106.713 234.988 101.696C235.227 100.382 235.203 97.5392 233.197 96.6792H221.015C219.932 96.5597 217.7 96.5358 215.999 100.263ZM137.536 155.807L130.012 172.291C129.773 173.605 129.941 176.519 132.52 177.666H144.343C145.418 177.547 147.783 176.806 148.643 174.799C149.503 172.792 154.256 162.257 156.525 157.24C156.764 155.926 156.74 153.083 154.733 152.223H142.552C141.469 152.104 139.237 152.08 137.536 155.807ZM195.219 155.807L187.695 172.291C187.456 173.605 187.623 176.519 190.203 177.666H202.026C203.101 177.547 205.466 176.806 206.326 174.799C207.186 172.792 211.939 162.257 214.208 157.24C214.447 155.926 214.423 153.083 212.416 152.223H200.235C199.152 152.104 196.92 152.08 195.219 155.807ZM90.2431 90.9456L82.7192 107.43C82.4804 108.744 82.6476 111.658 85.2272 112.805H97.0504C98.1252 112.685 100.49 111.945 101.35 109.938C102.21 107.931 106.963 97.3959 109.232 92.379C109.471 91.065 109.447 88.2221 107.44 87.3621C107.44 87.3621 96.3416 87.4816 95.259 87.3621C94.1764 87.2427 91.9441 87.2188 90.2431 90.9456ZM31.9059 75.1782L24.382 91.6623C24.1432 92.9762 24.3104 95.8908 26.89 97.0375H38.7132C39.7881 96.9181 42.1527 96.1775 43.0126 94.1707C43.8724 92.164 48.6256 81.6285 50.8947 76.6116C51.1336 75.2977 51.1097 72.4548 49.1033 71.5947H36.9218C35.8392 71.4753 33.607 71.4514 31.9059 75.1782ZM53.3403 18.9174L45.8164 35.4015C45.5776 36.7154 45.7448 39.63 48.3244 40.7767H60.1476C61.2224 40.6573 63.5871 39.9167 64.447 37.9099C65.3068 35.9032 70.06 25.3677 72.3291 20.3508C72.568 19.0369 72.5441 16.194 70.5377 15.334H58.3562C57.2736 15.2145 55.0413 15.1906 53.3403 18.9174ZM110.665 18.9174L103.141 35.4015C102.902 36.7154 103.069 39.63 105.649 40.7767H117.472C118.547 40.6573 120.912 39.9167 121.772 37.9099C122.632 35.9032 127.385 25.3677 129.654 20.3508C129.893 19.0369 129.869 16.194 127.862 15.334H115.681C114.598 15.2145 112.366 15.1906 110.665 18.9174Z" stroke="#FFC6D0"/>
<path d="M390.4 166H340C324 166 312.733 163.267 306.2 157.8C299.8 152.2 296.6 142.4 296.6 128.4V23.6H390.4V48.4H324.4V81.8H370.6L368.6 106.6H324.4V126.4C324.4 132 325.667 135.867 328.2 138C330.733 140.133 335.333 141.2 342 141.2H390.4V166ZM508.294 48.4H470.094V166H442.294V48.4H404.294V23.6H508.294V48.4ZM600.752 23.6V115.2C600.752 134.267 596.818 147.733 588.952 155.6C581.085 163.333 569.685 167.2 554.752 167.2C545.152 167.2 537.085 165.933 530.552 163.4C524.152 160.867 518.218 156.867 512.752 151.4L528.352 134.4C530.618 136.667 534.018 138.6 538.552 140.2C543.218 141.667 548.485 142.4 554.352 142.4C560.352 142.4 564.952 141 568.152 138.2C571.352 135.267 572.952 129.867 572.952 122V23.6H600.752ZM732.7 23.6V117.2C732.7 132.667 727.433 144.867 716.9 153.8C706.5 162.733 693.633 167.2 678.3 167.2C662.967 167.2 650.033 162.733 639.5 153.8C629.1 144.867 623.9 132.667 623.9 117.2V23.6H651.7V116.2C651.7 125 654.1 131.6 658.9 136C663.833 140.267 670.3 142.4 678.3 142.4C686.3 142.4 692.767 140.267 697.7 136C702.633 131.6 705.1 125 705.1 116.2V23.6H732.7ZM867.094 94.2L867.294 109.6C866.76 119.333 865.56 127.533 863.694 134.2C861.827 140.867 858.16 146.933 852.694 152.4C843.627 161.467 830.427 166 813.094 166C792.694 166 778.694 163.333 771.094 158C763.494 152.533 759.694 142.733 759.694 128.6V23.6H815.094C831.094 23.6 843.627 28.1333 852.694 37.2C860.027 44.5333 864.36 53.4667 865.694 64C866.627 71.4667 867.094 81.5333 867.094 94.2ZM833.294 132.4C835.827 129.333 837.427 125.133 838.094 119.8C838.894 114.333 839.294 105.867 839.294 94.4C839.294 82.9333 838.894 74.6667 838.094 69.6C837.427 64.4 835.827 60.2667 833.294 57.2C828.494 51.3333 821.56 48.4 812.494 48.4H787.494V127.2C787.494 132.533 789.294 136.2 792.894 138.2C796.494 140.2 802.894 141.2 812.094 141.2C821.427 141.2 828.494 138.267 833.294 132.4ZM983.33 166H932.93C916.93 166 905.663 163.267 899.13 157.8C892.73 152.2 889.53 142.4 889.53 128.4V23.6H983.33V48.4H917.33V81.8H963.53L961.53 106.6H917.33V126.4C917.33 132 918.596 135.867 921.13 138C923.663 140.133 928.263 141.2 934.93 141.2H983.33V166Z" fill="#FF5775"/>
</svg>
