<svg width="16" height="15" viewBox="0 0 16 15" fill="none" xmlns="http://www.w3.org/2000/svg">
<path d="M8 0C3.8675 0 0.5 3.3675 0.5 7.5C0.5 11.6325 3.8675 15 8 15C12.1325 15 15.5 11.6325 15.5 7.5C15.5 3.3675 12.1325 0 8 0ZM10.52 9.225C10.7375 9.4425 10.7375 9.8025 10.52 10.02C10.4075 10.1325 10.265 10.185 10.1225 10.185C9.98 10.185 9.8375 10.1325 9.725 10.02L8 8.295L6.275 10.02C6.1625 10.1325 6.02 10.185 5.8775 10.185C5.735 10.185 5.5925 10.1325 5.48 10.02C5.2625 9.8025 5.2625 9.4425 5.48 9.225L7.205 7.5L5.48 5.775C5.2625 5.5575 5.2625 5.1975 5.48 4.98C5.6975 4.7625 6.0575 4.7625 6.275 4.98L8 6.705L9.725 4.98C9.9425 4.7625 10.3025 4.7625 10.52 4.98C10.7375 5.1975 10.7375 5.5575 10.52 5.775L8.795 7.5L10.52 9.225Z" fill="#FF5775"/>
</svg>
