<svg width="20" height="20" viewBox="0 0 20 20" fill="none" xmlns="http://www.w3.org/2000/svg">
<path d="M13.3337 5.25V5C13.3337 3.15833 11.842 1.66666 10.0003 1.66666C8.15866 1.66666 6.66699 3.15833 6.66699 5V9.16666" stroke="white" stroke-width="1.5" stroke-linecap="round" stroke-linejoin="round"/>
<path d="M7.5332 11.825C8.14154 12.5 9.02487 12.9167 9.99987 12.9167C11.8415 12.9167 13.3332 11.425 13.3332 9.58333V9.16666" stroke="white" stroke-width="1.5" stroke-linecap="round" stroke-linejoin="round"/>
<path d="M5.65039 14.125C6.79206 15.1833 8.31706 15.8333 10.0004 15.8333C13.5171 15.8333 16.3754 12.975 16.3754 9.45833V8.04166" stroke="white" stroke-width="1.5" stroke-linecap="round" stroke-linejoin="round"/>
<path d="M3.625 8.04166V9.45833C3.625 10.3417 3.8 11.175 4.125 11.9417" stroke="white" stroke-width="1.5" stroke-linecap="round" stroke-linejoin="round"/>
<path d="M16.7254 2.36667L3.27539 15.825" stroke="white" stroke-width="1.5" stroke-linecap="round" stroke-linejoin="round"/>
<path d="M9.16699 2.5V5" stroke="white" stroke-width="1.5" stroke-linecap="round" stroke-linejoin="round"/>
<path d="M10 15.8333V18.3333" stroke="white" stroke-width="1.5" stroke-linecap="round" stroke-linejoin="round"/>
</svg>
