<svg width="20" height="20" viewBox="0 0 20 20" fill="none" xmlns="http://www.w3.org/2000/svg">
<path d="M10.0003 12.9167C11.842 12.9167 13.3337 11.425 13.3337 9.58333V5C13.3337 3.15833 11.842 1.66666 10.0003 1.66666C8.15866 1.66666 6.66699 3.15833 6.66699 5V9.58333C6.66699 11.425 8.15866 12.9167 10.0003 12.9167Z" stroke="white" stroke-width="1.5" stroke-linecap="round" stroke-linejoin="round"/>
<path d="M3.625 8.04166V9.45833C3.625 12.975 6.48333 15.8333 10 15.8333C13.5167 15.8333 16.375 12.975 16.375 9.45833V8.04166" stroke="white" stroke-width="1.5" stroke-linecap="round" stroke-linejoin="round"/>
<path d="M8.8418 5.35833C9.5918 5.08333 10.4085 5.08333 11.1585 5.35833" stroke="white" stroke-width="1.5" stroke-linecap="round" stroke-linejoin="round"/>
<path d="M9.33301 7.125C9.77467 7.00833 10.233 7.00833 10.6747 7.125" stroke="white" stroke-width="1.5" stroke-linecap="round" stroke-linejoin="round"/>
<path d="M10 15.8333V18.3333" stroke="white" stroke-width="1.5" stroke-linecap="round" stroke-linejoin="round"/>
</svg>
