<svg width="56" height="56" viewBox="0 0 56 56" fill="none" xmlns="http://www.w3.org/2000/svg">
<g filter="url(#filter0_d_1020_634)">
<path d="M46 28C46 24.4399 44.9443 20.9598 42.9665 17.9997C40.9886 15.0397 38.1774 12.7326 34.8883 11.3702C31.5992 10.0078 27.98 9.65134 24.4884 10.3459C20.9967 11.0404 17.7894 12.7547 15.2721 15.2721C12.7547 17.7894 11.0404 20.9967 10.3459 24.4884C9.65134 27.98 10.0078 31.5992 11.3702 34.8883C12.7326 38.1774 15.0397 40.9886 17.9997 42.9665C20.9598 44.9443 24.4399 46 28 46C32.7723 45.9947 37.3476 44.0966 40.7221 40.7221C44.0966 37.3476 45.9947 32.7723 46 28ZM26.7274 36.4726C26.5602 36.3055 26.4276 36.1071 26.3371 35.8887C26.2466 35.6704 26.2001 35.4363 26.2001 35.2C26.2001 34.9636 26.2466 34.7295 26.3371 34.5112C26.4276 34.2928 26.5602 34.0944 26.7274 33.9273L30.8547 29.8H20.8C20.3226 29.8 19.8648 29.6104 19.5272 29.2728C19.1896 28.9352 19 28.4774 19 28C19 27.5226 19.1896 27.0648 19.5272 26.7272C19.8648 26.3896 20.3226 26.2 20.8 26.2H30.8547L26.7274 22.0726C26.3949 21.734 26.2096 21.2779 26.2118 20.8034C26.2139 20.3289 26.4033 19.8744 26.7389 19.5389C27.0744 19.2033 27.5289 19.0139 28.0034 19.0117C28.4779 19.0096 28.934 19.1949 29.2726 19.5274L36.4721 26.7268C36.8083 27.0653 36.9971 27.523 36.9971 28.0001C36.9971 28.4771 36.8083 28.9348 36.4721 29.2733L29.2726 36.4726C29.1055 36.6398 28.9071 36.7724 28.6888 36.8629C28.4704 36.9533 28.2364 36.9999 28 36.9999C27.7636 36.9999 27.5296 36.9533 27.3112 36.8629C27.0929 36.7724 26.8945 36.6398 26.7274 36.4726Z" fill="#FF5775"/>
</g>
<defs>
<filter id="filter0_d_1020_634" x="0" y="0" width="56" height="56" filterUnits="userSpaceOnUse" color-interpolation-filters="sRGB">
<feFlood flood-opacity="0" result="BackgroundImageFix"/>
<feColorMatrix in="SourceAlpha" type="matrix" values="0 0 0 0 0 0 0 0 0 0 0 0 0 0 0 0 0 0 127 0" result="hardAlpha"/>
<feOffset/>
<feGaussianBlur stdDeviation="5"/>
<feComposite in2="hardAlpha" operator="out"/>
<feColorMatrix type="matrix" values="0 0 0 0 0 0 0 0 0 0 0 0 0 0 0 0 0 0 0.2 0"/>
<feBlend mode="normal" in2="BackgroundImageFix" result="effect1_dropShadow_1020_634"/>
<feBlend mode="normal" in="SourceGraphic" in2="effect1_dropShadow_1020_634" result="shape"/>
</filter>
</defs>
</svg>
