<svg width="56" height="56" viewBox="0 0 56 56" fill="none" xmlns="http://www.w3.org/2000/svg">
<g filter="url(#filter0_d_1020_633)">
<path d="M10 28C10 31.5601 11.0557 35.0402 13.0335 38.0003C15.0114 40.9603 17.8226 43.2674 21.1117 44.6298C24.4008 45.9922 28.02 46.3487 31.5116 45.6541C35.0033 44.9596 38.2106 43.2453 40.7279 40.7279C43.2453 38.2106 44.9596 35.0033 45.6541 31.5116C46.3487 28.02 45.9922 24.4008 44.6298 21.1117C43.2674 17.8226 40.9603 15.0114 38.0003 13.0335C35.0402 11.0557 31.5601 10 28 10C23.2277 10.0053 18.6524 11.9034 15.2779 15.2779C11.9034 18.6524 10.0053 23.2277 10 28ZM29.2726 19.5274C29.4398 19.6945 29.5724 19.8929 29.6629 20.1113C29.7534 20.3296 29.7999 20.5637 29.7999 20.8C29.7999 21.0364 29.7534 21.2705 29.6629 21.4888C29.5724 21.7072 29.4398 21.9056 29.2726 22.0727L25.1453 26.2H35.2C35.6774 26.2 36.1352 26.3896 36.4728 26.7272C36.8104 27.0648 37 27.5226 37 28C37 28.4774 36.8104 28.9352 36.4728 29.2728C36.1352 29.6104 35.6774 29.8 35.2 29.8H25.1453L29.2727 33.9274C29.6067 34.2656 29.7933 34.7223 29.7918 35.1977C29.7903 35.6731 29.6008 36.1285 29.2647 36.4647C28.9285 36.8008 28.473 36.9903 27.9977 36.9918C27.5223 36.9933 27.0656 36.8066 26.7274 36.4726L19.5279 29.2732C19.1917 28.9347 19.0029 28.477 19.0029 27.9999C19.0029 27.5229 19.1917 27.0652 19.5279 26.7267L26.7274 19.5274C26.8945 19.3602 27.0929 19.2276 27.3112 19.1371C27.5296 19.0467 27.7636 19.0001 28 19.0001C28.2364 19.0001 28.4704 19.0467 28.6888 19.1371C28.9071 19.2276 29.1055 19.3602 29.2726 19.5274Z" fill="#FF5775"/>
</g>
<defs>
<filter id="filter0_d_1020_633" x="0" y="0" width="56" height="56" filterUnits="userSpaceOnUse" color-interpolation-filters="sRGB">
<feFlood flood-opacity="0" result="BackgroundImageFix"/>
<feColorMatrix in="SourceAlpha" type="matrix" values="0 0 0 0 0 0 0 0 0 0 0 0 0 0 0 0 0 0 127 0" result="hardAlpha"/>
<feOffset/>
<feGaussianBlur stdDeviation="5"/>
<feComposite in2="hardAlpha" operator="out"/>
<feColorMatrix type="matrix" values="0 0 0 0 0 0 0 0 0 0 0 0 0 0 0 0 0 0 0.2 0"/>
<feBlend mode="normal" in2="BackgroundImageFix" result="effect1_dropShadow_1020_633"/>
<feBlend mode="normal" in="SourceGraphic" in2="effect1_dropShadow_1020_633" result="shape"/>
</filter>
</defs>
</svg>
