<svg width="21" height="21" viewBox="0 0 21 21" fill="none" xmlns="http://www.w3.org/2000/svg">
<path d="M14.3991 11.2448C15.4336 10.4353 16.1887 9.32536 16.5593 8.06926C16.9299 6.81315 16.8977 5.47339 16.467 4.23637C16.0364 2.99935 15.2287 1.92657 14.1565 1.1673C13.0842 0.40802 11.8006 0 10.4844 0C9.16806 0 7.88449 0.40802 6.81223 1.1673C5.73997 1.92657 4.93233 2.99935 4.50168 4.23637C4.07102 5.47339 4.03877 6.81315 4.4094 8.06926C4.78003 9.32536 5.53512 10.4353 6.56961 11.2448C4.79699 11.9511 3.25031 13.1225 2.09446 14.6342C0.938618 16.146 0.216941 17.9413 0.00636471 19.8288C-0.00887787 19.9666 0.00332212 20.1061 0.0422678 20.2392C0.0812135 20.3723 0.146142 20.4965 0.233347 20.6047C0.409465 20.8231 0.665627 20.9631 0.945479 20.9937C1.22533 21.0243 1.50595 20.9431 1.7256 20.7679C1.94526 20.5928 2.08595 20.338 2.11673 20.0597C2.34844 18.0083 3.33198 16.1138 4.87944 14.738C6.4269 13.3622 8.4298 12.6017 10.5055 12.6017C12.5811 12.6017 14.584 13.3622 16.1315 14.738C17.6789 16.1138 18.6625 18.0083 18.8942 20.0597C18.9229 20.3176 19.0466 20.5557 19.2414 20.7282C19.4363 20.9007 19.6885 20.9952 19.9494 20.9937H20.0654C20.342 20.962 20.5948 20.8229 20.7688 20.6067C20.9427 20.3905 21.0237 20.1147 20.994 19.8393C20.7824 17.9464 20.0569 16.1465 18.8951 14.6324C17.7333 13.1184 16.1791 11.9473 14.3991 11.2448ZM10.4844 10.4997C9.64957 10.4997 8.83353 10.2535 8.13943 9.7923C7.44534 9.33106 6.90435 8.67549 6.58489 7.90848C6.26544 7.14148 6.18185 6.29748 6.34471 5.48323C6.50757 4.66898 6.90956 3.92104 7.49984 3.334C8.09012 2.74696 8.84218 2.34718 9.66092 2.18521C10.4797 2.02325 11.3283 2.10637 12.0996 2.42408C12.8708 2.74178 13.53 3.2798 13.9938 3.97009C14.4575 4.66038 14.7051 5.47193 14.7051 6.30214C14.7051 7.41541 14.2604 8.48308 13.4689 9.27028C12.6773 10.0575 11.6038 10.4997 10.4844 10.4997Z" fill="black"/>
</svg>
