<svg width="17" height="17" viewBox="0 0 17 17" fill="none" xmlns="http://www.w3.org/2000/svg">
<path d="M9.99704 8.49909L16.6859 1.8201C16.8859 1.62015 16.9982 1.34896 16.9982 1.06619C16.9982 0.783418 16.8859 0.512229 16.6859 0.312279C16.486 0.11233 16.2149 0 15.9321 0C15.6494 0 15.3782 0.11233 15.1783 0.312279L8.5 7.0019L1.82172 0.312279C1.62179 0.11233 1.35063 2.51056e-07 1.06789 2.53163e-07C0.785146 2.5527e-07 0.513986 0.11233 0.314058 0.312279C0.11413 0.512229 0.0018122 0.783418 0.0018122 1.06619C0.0018122 1.34896 0.11413 1.62015 0.314058 1.8201L7.00296 8.49909L0.314058 15.1781C0.214544 15.2768 0.135557 15.3942 0.0816547 15.5236C0.027752 15.653 0 15.7918 0 15.932C0 16.0722 0.027752 16.211 0.0816547 16.3404C0.135557 16.4698 0.214544 16.5872 0.314058 16.6859C0.41276 16.7854 0.530188 16.8644 0.65957 16.9183C0.788952 16.9722 0.927726 17 1.06789 17C1.20805 17 1.34682 16.9722 1.4762 16.9183C1.60559 16.8644 1.72301 16.7854 1.82172 16.6859L8.5 9.99629L15.1783 16.6859C15.277 16.7854 15.3944 16.8644 15.5238 16.9183C15.6532 16.9722 15.792 17 15.9321 17C16.0723 17 16.211 16.9722 16.3404 16.9183C16.4698 16.8644 16.5872 16.7854 16.6859 16.6859C16.7855 16.5872 16.8644 16.4698 16.9183 16.3404C16.9723 16.211 17 16.0722 17 15.932C17 15.7918 16.9723 15.653 16.9183 15.5236C16.8644 15.3942 16.7855 15.2768 16.6859 15.1781L9.99704 8.49909Z" fill="black" fill-opacity="0.37"/>
</svg>
