<svg width="12" height="13" viewBox="0 0 12 13" fill="none" xmlns="http://www.w3.org/2000/svg">
<path d="M4.2 2.33333L6.2 1M4.2 2.33333L6.2 3.66667M4.2 2.33333H6C6.67795 2.33333 7.32439 2.44577 7.91393 2.6495C8.52504 2.86068 9.075 3.16995 9.53555 3.55373C9.99607 3.9375 10.3672 4.39579 10.6206 4.90503C10.8651 5.39631 11 5.93503 11 6.5C11 7.06497 10.8651 7.60368 10.6206 8.09496M7.8 10.6667L5.8 12M7.8 10.6667L5.8 9.33333M7.8 10.6667H6C5.32206 10.6667 4.67562 10.5542 4.08609 10.3505C3.47499 10.1393 2.92502 9.83007 2.46448 9.44629C2.00392 9.06249 1.63279 8.60417 1.37937 8.09489C1.13492 7.60362 1 7.06494 1 6.5C1 5.93505 1.13492 5.39637 1.37938 4.9051" stroke="black" stroke-width="1.2" stroke-linecap="round" stroke-linejoin="round"/>
</svg>
