<svg width="27" height="24" viewBox="0 0 27 24" fill="none" xmlns="http://www.w3.org/2000/svg">
<path d="M24.5471 8.20296L5.65791 0.311275C4.9432 0.0119735 4.1587 -0.0738279 3.39729 0.0640288C2.63588 0.201885 1.92945 0.557627 1.36162 1.08914C0.793799 1.62065 0.388359 2.30568 0.193302 3.06312C-0.00175489 3.82056 0.0217397 4.6187 0.261004 5.36305L2.33881 11.985L0.207035 18.6069C-0.0386978 19.3542 -0.0663015 20.1574 0.127531 20.9202C0.321363 21.683 0.728411 22.3731 1.29991 22.9077C2.03475 23.5973 2.99627 23.9865 3.99836 24C4.53095 23.9996 5.05823 23.8929 5.54998 23.686L24.5066 15.7943C25.2449 15.4836 25.8757 14.9586 26.3194 14.2855C26.7632 13.6124 27 12.8214 27 12.0123C27 11.2032 26.7632 10.4122 26.3194 9.73907C25.8757 9.06599 25.2449 8.54098 24.5066 8.23027L24.5471 8.20296ZM4.56504 21.1328C4.32704 21.2321 4.06591 21.2605 3.81249 21.2145C3.55908 21.1686 3.32395 21.0502 3.13486 20.8734C2.95674 20.7011 2.82863 20.4828 2.76441 20.2421C2.70019 20.0015 2.70232 19.7476 2.77057 19.508L4.74044 13.3503H23.2653L4.56504 21.1328ZM4.74044 10.6196L2.73009 4.51654C2.66184 4.27699 2.65971 4.0231 2.72393 3.78241C2.78815 3.54173 2.91627 3.32343 3.09438 3.15119C3.22135 3.0164 3.37423 2.90932 3.54361 2.83653C3.71299 2.76374 3.8953 2.72678 4.07932 2.72793C4.26018 2.72829 4.43912 2.76543 4.60552 2.83716L23.2653 10.6196H4.74044Z" fill="#5F5F5F"/>
</svg>
