<svg width="15" height="15" viewBox="0 0 15 15" fill="none" xmlns="http://www.w3.org/2000/svg">
<path d="M9.0625 2.22656C9.0625 1.57935 8.53783 1.05469 7.89062 1.05469H7.10938C6.46217 1.05469 5.9375 1.57935 5.9375 2.22656V2.78475C5.9375 3.13276 5.51674 3.30704 5.27066 3.06096L4.87597 2.66628C4.41833 2.20863 3.67634 2.20863 3.21869 2.66628L2.66627 3.2187C2.20862 3.67635 2.20862 4.41834 2.66627 4.87598L3.06094 5.27066C3.30702 5.51674 3.13274 5.9375 2.78473 5.9375L2.22656 5.9375C1.57935 5.9375 1.05469 6.46217 1.05469 7.10937L1.05469 7.89062C1.05469 8.53783 1.57935 9.0625 2.22656 9.0625H2.78471C3.13272 9.0625 3.307 9.48326 3.06092 9.72934L2.66626 10.124C2.20862 10.5816 2.20862 11.3236 2.66626 11.7813L3.21869 12.3337C3.67633 12.7914 4.41832 12.7914 4.87597 12.3337L5.27066 11.939C5.51674 11.6929 5.9375 11.8672 5.9375 12.2152V12.7734C5.9375 13.4206 6.46217 13.9453 7.10938 13.9453H7.89062C8.53783 13.9453 9.0625 13.4206 9.0625 12.7734V12.2153C9.0625 11.8673 9.48326 11.693 9.72934 11.9391L10.124 12.3337C10.5817 12.7914 11.3237 12.7914 11.7813 12.3338L12.3337 11.7813C12.7914 11.3237 12.7914 10.5817 12.3337 10.124L11.939 9.72934C11.693 9.48326 11.8672 9.0625 12.2153 9.0625H12.7734C13.4206 9.0625 13.9453 8.53783 13.9453 7.89062V7.10938C13.9453 6.46217 13.4206 5.9375 12.7734 5.9375L12.2152 5.9375C11.8672 5.9375 11.6929 5.51674 11.939 5.27066L12.3337 4.87594C12.7914 4.41829 12.7914 3.6763 12.3337 3.21866L11.7813 2.66623C11.3237 2.20858 10.5817 2.20858 10.124 2.66623L9.72934 3.06092C9.48326 3.307 9.0625 3.13272 9.0625 2.78471V2.22656Z" stroke="#FF5775" stroke-width="1.5" stroke-linejoin="round"/>
<path d="M9.64844 7.5C9.64844 8.68655 8.68655 9.64844 7.5 9.64844C6.31345 9.64844 5.35156 8.68655 5.35156 7.5C5.35156 6.31345 6.31345 5.35156 7.5 5.35156C8.68655 5.35156 9.64844 6.31345 9.64844 7.5Z" stroke="#FF5775" stroke-width="1.5" stroke-linejoin="round"/>
</svg>
