<svg width="20" height="20" viewBox="0 0 20 20" fill="none" xmlns="http://www.w3.org/2000/svg">
<g clip-path="url(#clip0_904_4575)">
<path d="M14.3843 4.47486L5.62392 8.85507M5.62392 11.145L14.3565 15.5114M5.83398 10C5.83398 11.3807 4.7147 12.5 3.33398 12.5C1.95327 12.5 0.833984 11.3807 0.833984 10C0.833984 8.61933 1.95327 7.50004 3.33398 7.50004C4.7147 7.50004 5.83398 8.61933 5.83398 10ZM19.1673 3.33337C19.1673 4.71409 18.048 5.83337 16.6673 5.83337C15.2867 5.83337 14.1673 4.71409 14.1673 3.33337C14.1673 1.95266 15.2867 0.833374 16.6673 0.833374C18.048 0.833374 19.1673 1.95266 19.1673 3.33337ZM19.1673 16.6667C19.1673 18.0474 18.048 19.1667 16.6673 19.1667C15.2867 19.1667 14.1673 18.0474 14.1673 16.6667C14.1673 15.286 15.2867 14.1667 16.6673 14.1667C18.048 14.1667 19.1673 15.286 19.1673 16.6667Z" stroke="black" stroke-width="1.5" stroke-linecap="round" stroke-linejoin="round"/>
</g>
<defs>
<clipPath id="clip0_904_4575">
<rect width="20" height="20" fill="white"/>
</clipPath>
</defs>
</svg>
