<svg width="21" height="21" viewBox="0 0 21 21" fill="none" xmlns="http://www.w3.org/2000/svg">
<path d="M16.8821 12.5162C16.2777 12.5201 15.6818 12.6549 15.137 12.9108C14.5923 13.1667 14.1123 13.5374 13.7315 13.9962L8.51464 11.6462C8.75993 10.912 8.75993 10.1205 8.51464 9.38623L13.7315 7.03623C14.3469 7.76219 15.2049 8.25231 16.1539 8.42007C17.103 8.58783 18.0822 8.42245 18.9187 7.95313C19.7552 7.48381 20.3952 6.7407 20.7258 5.85497C21.0563 4.96924 21.0563 3.99781 20.7255 3.11213C20.3948 2.22646 19.7546 1.48347 18.918 1.0143C18.0815 0.545121 17.1022 0.379921 16.1532 0.547851C15.2042 0.715782 14.3463 1.20605 13.731 1.93212C13.1158 2.6582 12.7826 3.57341 12.7904 4.51623C12.7935 4.75446 12.8175 4.992 12.862 5.22623L7.46104 7.65623C6.88522 7.10581 6.15605 6.73374 5.36488 6.58666C4.57372 6.43957 3.75575 6.52399 3.01345 6.82936C2.27115 7.13473 1.63754 7.64745 1.19199 8.30329C0.746449 8.95913 0.508789 9.72893 0.508789 10.5162C0.508789 11.3035 0.746449 12.0733 1.19199 12.7292C1.63754 13.385 2.27115 13.8977 3.01345 14.2031C3.75575 14.5085 4.57372 14.5929 5.36488 14.4458C6.15605 14.2987 6.88522 13.9266 7.46104 13.3762L12.862 15.8062C12.8175 16.0405 12.7935 16.278 12.7904 16.5162C12.7904 17.3074 13.0304 18.0807 13.48 18.7385C13.9296 19.3963 14.5686 19.909 15.3163 20.2117C16.0639 20.5145 16.8866 20.5937 17.6803 20.4394C18.4741 20.285 19.2031 19.9041 19.7753 19.3447C20.3476 18.7852 20.7373 18.0725 20.8951 17.2966C21.053 16.5207 20.972 15.7164 20.6623 14.9855C20.3526 14.2546 19.8282 13.6299 19.1553 13.1903C18.4824 12.7508 17.6914 12.5162 16.8821 12.5162ZM16.8821 2.51623C17.2867 2.51623 17.6823 2.63353 18.0187 2.85329C18.3551 3.07305 18.6174 3.38541 18.7722 3.75086C18.9271 4.11631 18.9676 4.51845 18.8886 4.90641C18.8097 5.29437 18.6148 5.65074 18.3287 5.93044C18.0426 6.21015 17.6781 6.40063 17.2812 6.4778C16.8844 6.55497 16.473 6.51536 16.0992 6.36399C15.7254 6.21261 15.4059 5.95627 15.1811 5.62737C14.9563 5.29847 14.8363 4.91179 14.8363 4.51623C14.8363 3.98579 15.0518 3.47709 15.4355 3.10201C15.8191 2.72694 16.3395 2.51623 16.8821 2.51623ZM4.6071 12.5162C4.20247 12.5162 3.80693 12.3989 3.4705 12.1792C3.13406 11.9594 2.87184 11.647 2.717 11.2816C2.56215 10.9161 2.52164 10.514 2.60058 10.126C2.67952 9.73808 2.87436 9.38172 3.16048 9.10201C3.44659 8.82231 3.81113 8.63183 4.20798 8.55466C4.60483 8.47749 5.01618 8.51709 5.39001 8.66847C5.76384 8.81984 6.08335 9.07619 6.30815 9.40509C6.53295 9.73399 6.65294 10.1207 6.65294 10.5162C6.65294 11.0467 6.43739 11.5554 6.05373 11.9304C5.67006 12.3055 5.14969 12.5162 4.6071 12.5162ZM16.8821 18.5162C16.4775 18.5162 16.0819 18.3989 15.7455 18.1792C15.4091 17.9594 15.1468 17.647 14.992 17.2816C14.8372 16.9161 14.7966 16.514 14.8756 16.126C14.9545 15.7381 15.1494 15.3817 15.4355 15.102C15.7216 14.8223 16.0861 14.6318 16.483 14.5547C16.8798 14.4775 17.2912 14.5171 17.665 14.6685C18.0388 14.8198 18.3584 15.0762 18.5832 15.4051C18.808 15.734 18.9279 16.1207 18.9279 16.5162C18.9279 17.0467 18.7124 17.5554 18.3287 17.9304C17.9451 18.3055 17.4247 18.5162 16.8821 18.5162Z" fill="#4F4F4F"/>
</svg>
