<svg width="34" height="34" viewBox="0 0 34 34" fill="none" xmlns="http://www.w3.org/2000/svg">
<path d="M11.9 15.3C12.2362 15.3 12.5649 15.2003 12.8445 15.0135C13.124 14.8267 13.3419 14.5612 13.4706 14.2506C13.5993 13.9399 13.6329 13.5981 13.5673 13.2683C13.5017 12.9386 13.3398 12.6357 13.1021 12.3979C12.8643 12.1602 12.5614 11.9983 12.2317 11.9327C11.9019 11.8671 11.5601 11.9007 11.2494 12.0294C10.9388 12.1581 10.6733 12.376 10.4865 12.6555C10.2997 12.9351 10.2 13.2638 10.2 13.6C10.2 14.0509 10.3791 14.4833 10.6979 14.8021C11.0167 15.1209 11.4491 15.3 11.9 15.3ZM20.672 17.357C20.8309 17.5146 21.0192 17.6392 21.2264 17.7238C21.4335 17.8084 21.6553 17.8513 21.879 17.85C22.1027 17.8513 22.3245 17.8084 22.5316 17.7238C22.7388 17.6392 22.9272 17.5146 23.086 17.357C23.2453 17.199 23.3718 17.0109 23.4581 16.8038C23.5444 16.5966 23.5889 16.3744 23.5889 16.15C23.5889 15.9256 23.5444 15.7034 23.4581 15.4962C23.3718 15.2891 23.2453 15.101 23.086 14.943L21.743 13.6L23.086 12.257C23.2445 12.0985 23.3702 11.9103 23.456 11.7032C23.5418 11.4961 23.586 11.2742 23.586 11.05C23.586 10.8258 23.5418 10.6039 23.456 10.3968C23.3702 10.1897 23.2445 10.0015 23.086 9.843C22.9275 9.68449 22.7393 9.55876 22.5322 9.47298C22.3251 9.38719 22.1032 9.34304 21.879 9.34304C21.6548 9.34304 21.4329 9.38719 21.2258 9.47298C21.0187 9.55876 20.8305 9.68449 20.672 9.843L18.122 12.393C17.9627 12.551 17.8362 12.7391 17.7499 12.9462C17.6636 13.1534 17.6191 13.3756 17.6191 13.6C17.6191 13.8244 17.6636 14.0466 17.7499 14.2538C17.8362 14.4609 17.9627 14.649 18.122 14.807L20.672 17.357ZM17 0C13.6377 0 10.3509 0.997032 7.55531 2.86502C4.75968 4.733 2.58074 7.38804 1.29406 10.4944C0.00736582 13.6007 -0.329291 17.0189 0.326658 20.3165C0.982606 23.6142 2.6017 26.6433 4.97919 29.0208C7.35668 31.3983 10.3858 33.0174 13.6835 33.6733C16.9811 34.3293 20.3993 33.9926 23.5056 32.7059C26.612 31.4193 29.267 29.2403 31.135 26.4447C33.003 23.6491 34 20.3623 34 17C34 14.7675 33.5603 12.5569 32.706 10.4944C31.8516 8.43184 30.5994 6.55778 29.0208 4.97918C27.4422 3.40059 25.5682 2.14838 23.5056 1.29405C21.4431 0.439718 19.2325 0 17 0ZM17 30.6C14.3102 30.6 11.6808 29.8024 9.44425 28.308C7.20774 26.8136 5.4646 24.6896 4.43525 22.2045C3.40589 19.7194 3.13657 16.9849 3.66133 14.3468C4.18609 11.7086 5.48136 9.28534 7.38335 7.38335C9.28535 5.48135 11.7086 4.18608 14.3468 3.66132C16.9849 3.13656 19.7194 3.40589 22.2045 4.43524C24.6896 5.46459 26.8136 7.20773 28.308 9.44424C29.8024 11.6808 30.6 14.3102 30.6 17C30.6 20.6069 29.1671 24.0662 26.6167 26.6166C24.0662 29.1671 20.6069 30.6 17 30.6ZM21.012 20.791C19.8756 21.7072 18.4598 22.2069 17 22.2069C15.5402 22.2069 14.1244 21.7072 12.988 20.791C12.6408 20.5024 12.1933 20.3636 11.7437 20.4051C11.2942 20.4465 10.8796 20.6648 10.591 21.012C10.3025 21.3592 10.1636 21.8067 10.2051 22.2563C10.2465 22.7058 10.4648 23.1204 10.812 23.409C12.5483 24.8584 14.7383 25.6524 17 25.6524C19.2618 25.6524 21.4517 24.8584 23.188 23.409C23.5352 23.1204 23.7535 22.7058 23.7949 22.2563C23.8364 21.8067 23.6976 21.3592 23.409 21.012C23.2661 20.8401 23.0908 20.698 22.893 20.5939C22.6952 20.4897 22.4789 20.4256 22.2563 20.4051C21.8068 20.3636 21.3592 20.5024 21.012 20.791Z" fill="#898989"/>
</svg>
