<svg width="21" height="21" viewBox="0 0 21 21" fill="none" xmlns="http://www.w3.org/2000/svg">
<path d="M15.5 0.935547H5.5C2.5 0.935547 0.5 2.93555 0.5 5.93555V11.9355C0.5 14.9355 2.5 16.9355 5.5 16.9355H9.5L13.95 19.8955C14.61 20.3355 15.5 19.8655 15.5 19.0655V16.9355C18.5 16.9355 20.5 14.9355 20.5 11.9355V5.93555C20.5 2.93555 18.5 0.935547 15.5 0.935547ZM14 9.75555H7C6.59 9.75555 6.25 9.41555 6.25 9.00555C6.25 8.59555 6.59 8.25555 7 8.25555H14C14.41 8.25555 14.75 8.59555 14.75 9.00555C14.75 9.41555 14.41 9.75555 14 9.75555Z" fill="#FDCC11"/>
</svg>
