<svg width="18" height="15" viewBox="0 0 18 15" fill="none" xmlns="http://www.w3.org/2000/svg">
<path d="M1.50033 2.70832H16.5003C16.7213 2.70832 16.9333 2.60736 17.0896 2.42763C17.2459 2.24791 17.3337 2.00416 17.3337 1.74999C17.3337 1.49582 17.2459 1.25207 17.0896 1.07235C16.9333 0.892624 16.7213 0.791656 16.5003 0.791656H1.50033C1.27931 0.791656 1.06735 0.892624 0.91107 1.07235C0.75479 1.25207 0.666992 1.49582 0.666992 1.74999C0.666992 2.00416 0.75479 2.24791 0.91107 2.42763C1.06735 2.60736 1.27931 2.70832 1.50033 2.70832ZM1.50033 6.54166H9.83366C10.0547 6.54166 10.2666 6.44069 10.4229 6.26097C10.5792 6.08124 10.667 5.83749 10.667 5.58332C10.667 5.32916 10.5792 5.0854 10.4229 4.90568C10.2666 4.72596 10.0547 4.62499 9.83366 4.62499H1.50033C1.27931 4.62499 1.06735 4.72596 0.91107 4.90568C0.75479 5.0854 0.666992 5.32916 0.666992 5.58332C0.666992 5.83749 0.75479 6.08124 0.91107 6.26097C1.06735 6.44069 1.27931 6.54166 1.50033 6.54166ZM17.142 5.28624C17.0714 5.1899 16.9851 5.11049 16.8878 5.05256C16.7906 4.99463 16.6843 4.95932 16.5752 4.94864C16.4661 4.93796 16.3562 4.95212 16.2518 4.99032C16.1475 5.02851 16.0507 5.08999 15.967 5.17124L14.3003 6.76207C14.206 6.852 14.13 6.96475 14.0779 7.0923C14.0257 7.21985 13.9987 7.35905 13.9987 7.49999C13.9987 7.64093 14.0257 7.78013 14.0779 7.90768C14.13 8.03523 14.206 8.14798 14.3003 8.23791L15.967 9.82874C16.1158 9.97507 16.3046 10.0565 16.5003 10.0587C16.6228 10.059 16.7437 10.0282 16.8546 9.96855C16.9655 9.90892 17.0636 9.82192 17.142 9.71374C17.2122 9.6169 17.265 9.5051 17.2976 9.38473C17.3301 9.26436 17.3417 9.13779 17.3316 9.01227C17.3215 8.88675 17.29 8.76474 17.2389 8.65325C17.1878 8.54175 17.118 8.44294 17.0337 8.36249L16.1337 7.49999L17.0337 6.63749C17.118 6.55704 17.1878 6.45823 17.2389 6.34674C17.29 6.23524 17.3215 6.11323 17.3316 5.98771C17.3417 5.86219 17.3301 5.73562 17.2976 5.61525C17.265 5.49488 17.2122 5.38308 17.142 5.28624ZM16.5003 12.2917H1.50033C1.27931 12.2917 1.06735 12.3926 0.91107 12.5723C0.75479 12.7521 0.666992 12.9958 0.666992 13.25C0.666992 13.5042 0.75479 13.7479 0.91107 13.9276C1.06735 14.1074 1.27931 14.2083 1.50033 14.2083H16.5003C16.7213 14.2083 16.9333 14.1074 17.0896 13.9276C17.2459 13.7479 17.3337 13.5042 17.3337 13.25C17.3337 12.9958 17.2459 12.7521 17.0896 12.5723C16.9333 12.3926 16.7213 12.2917 16.5003 12.2917ZM1.50033 10.375H9.83366C10.0547 10.375 10.2666 10.274 10.4229 10.0943C10.5792 9.91458 10.667 9.67082 10.667 9.41666C10.667 9.16249 10.5792 8.91874 10.4229 8.73901C10.2666 8.55929 10.0547 8.45832 9.83366 8.45832H1.50033C1.27931 8.45832 1.06735 8.55929 0.91107 8.73901C0.75479 8.91874 0.666992 9.16249 0.666992 9.41666C0.666992 9.67082 0.75479 9.91458 0.91107 10.0943C1.06735 10.274 1.27931 10.375 1.50033 10.375Z" fill="#4F4F4F"/>
</svg>
