<svg width="21" height="20" viewBox="0 0 21 20" fill="none" xmlns="http://www.w3.org/2000/svg">
<g clip-path="url(#clip0_904_4573)">
<path d="M11.0009 0C9.68762 0 8.38726 0.258658 7.174 0.761205C5.96075 1.26375 4.85836 2.00035 3.92977 2.92893C2.05441 4.8043 1.00084 7.34784 1.00084 10C0.9921 12.3091 1.79163 14.5485 3.26084 16.33L1.26084 18.33C1.12208 18.4706 1.02808 18.6492 0.990714 18.8432C0.95334 19.0372 0.974263 19.2379 1.05084 19.42C1.1339 19.5999 1.26854 19.7511 1.43768 19.8544C1.60683 19.9577 1.80284 20.0083 2.00084 20H11.0009C13.6531 20 16.1966 18.9464 18.072 17.0711C19.9473 15.1957 21.0009 12.6522 21.0009 10C21.0009 7.34784 19.9473 4.8043 18.072 2.92893C16.1966 1.05357 13.6531 0 11.0009 0ZM11.0009 18H4.41084L5.34084 17.07C5.52709 16.8826 5.63163 16.6292 5.63163 16.365C5.63163 16.1008 5.52709 15.8474 5.34084 15.66C4.03142 14.352 3.21601 12.6305 3.03353 10.7888C2.85105 8.94705 3.31278 7.09901 4.34007 5.55952C5.36735 4.02004 6.89663 2.88436 8.66735 2.34597C10.4381 1.80759 12.3407 1.8998 14.0511 2.60691C15.7615 3.31402 17.1737 4.59227 18.0473 6.22389C18.9209 7.85551 19.2018 9.73954 18.842 11.555C18.4823 13.3705 17.5042 15.005 16.0744 16.1802C14.6447 17.3554 12.8517 17.9985 11.0009 18Z" fill="black"/>
</g>
<defs>
<clipPath id="clip0_904_4573">
<rect width="21" height="20" fill="white"/>
</clipPath>
</defs>
</svg>
