<svg width="32" height="32" viewBox="0 0 32 32" fill="none" xmlns="http://www.w3.org/2000/svg">
<path d="M25.3327 8.66666H23.626L23.1993 7.33332C22.9228 6.55096 22.4097 5.87399 21.7312 5.3962C21.0528 4.91841 20.2425 4.66346 19.4127 4.66666H12.586C11.7481 4.66822 10.9318 4.9329 10.2524 5.42333C9.57295 5.91376 9.06469 6.60517 8.79935 7.39999L8.37268 8.73332H6.66602C5.60515 8.73332 4.58773 9.15475 3.83759 9.90489C3.08744 10.655 2.66602 11.6725 2.66602 12.7333V23.4C2.66602 24.4609 3.08744 25.4783 3.83759 26.2284C4.58773 26.9786 5.60515 27.4 6.66602 27.4H25.3327C26.3935 27.4 27.411 26.9786 28.1611 26.2284C28.9113 25.4783 29.3327 24.4609 29.3327 23.4V12.7333C29.3415 12.2025 29.2446 11.6751 29.0476 11.1821C28.8505 10.6891 28.5573 10.2402 28.1849 9.8617C27.8126 9.48318 27.3687 9.18256 26.879 8.97739C26.3893 8.77221 25.8636 8.66658 25.3327 8.66666ZM26.666 23.3333C26.666 23.6869 26.5255 24.0261 26.2755 24.2761C26.0254 24.5262 25.6863 24.6667 25.3327 24.6667H6.66602C6.31239 24.6667 5.97326 24.5262 5.72321 24.2761C5.47316 24.0261 5.33268 23.6869 5.33268 23.3333V12.6667C5.33268 12.313 5.47316 11.9739 5.72321 11.7238C5.97326 11.4738 6.31239 11.3333 6.66602 11.3333H9.33268C9.62344 11.3485 9.91117 11.2681 10.1519 11.1044C10.3927 10.9407 10.5732 10.7026 10.666 10.4267L11.386 8.23999C11.4755 7.97516 11.6459 7.74514 11.8732 7.58244C12.1005 7.41975 12.3732 7.3326 12.6527 7.33332H19.4793C19.7589 7.3326 20.0316 7.41975 20.2589 7.58244C20.4862 7.74514 20.6566 7.97516 20.746 8.23999L21.466 10.4267C21.5516 10.681 21.7119 10.9036 21.926 11.0653C22.1401 11.2271 22.398 11.3205 22.666 11.3333H25.3327C25.6863 11.3333 26.0254 11.4738 26.2755 11.7238C26.5255 11.9739 26.666 12.313 26.666 12.6667V23.3333ZM15.9993 11.3333C14.9445 11.3333 13.9134 11.6461 13.0363 12.2322C12.1592 12.8182 11.4757 13.6511 11.072 14.6257C10.6683 15.6002 10.5627 16.6726 10.7685 17.7071C10.9743 18.7417 11.4822 19.692 12.2281 20.4379C12.974 21.1838 13.9243 21.6917 14.9589 21.8975C15.9934 22.1033 17.0658 21.9977 18.0403 21.594C19.0149 21.1903 19.8478 20.5068 20.4339 19.6297C21.0199 18.7526 21.3327 17.7215 21.3327 16.6667C21.3327 15.2522 20.7708 13.8956 19.7706 12.8954C18.7704 11.8952 17.4138 11.3333 15.9993 11.3333V11.3333ZM15.9993 19.3333C15.4719 19.3333 14.9564 19.1769 14.5178 18.8839C14.0793 18.5909 13.7375 18.1744 13.5357 17.6871C13.3338 17.1999 13.281 16.6637 13.3839 16.1464C13.4868 15.6291 13.7408 15.154 14.1137 14.781C14.4867 14.4081 14.9618 14.1541 15.4791 14.0512C15.9964 13.9483 16.5326 14.0011 17.0198 14.203C17.5071 14.4048 17.9236 14.7466 18.2166 15.1851C18.5096 15.6237 18.666 16.1392 18.666 16.6667C18.666 17.3739 18.3851 18.0522 17.885 18.5523C17.3849 19.0524 16.7066 19.3333 15.9993 19.3333Z" fill="#FF5775"/>
</svg>
