<svg width="33" height="34" viewBox="0 0 33 34" fill="none" xmlns="http://www.w3.org/2000/svg">
<circle cx="16.25" cy="17" r="16.25" fill="#2C96D4"/>
<path d="M26.9167 12.8022C26.9291 13.0283 26.9291 13.2544 26.9291 13.468C26.9259 14.8591 26.7253 16.2426 26.3334 17.5759C25.5075 20.6486 23.6942 23.3553 21.1797 25.2685C18.6652 27.1817 15.5929 28.1924 12.4478 28.1411C9.67915 28.1442 6.96864 27.3371 4.64258 25.817C5.046 25.8675 5.45214 25.8927 5.85864 25.8923C8.14961 25.8945 10.3746 25.1157 12.1749 23.6813C11.1145 23.6611 10.0867 23.3066 9.23484 22.6671C8.38292 22.0276 7.74929 21.1349 7.42223 20.1136C7.73795 20.1683 8.05745 20.1977 8.37775 20.2016C8.83509 20.2033 9.2904 20.1398 9.73027 20.0131C8.64125 19.7948 7.65317 19.2205 6.91784 18.3785C6.18252 17.5365 5.74065 16.4733 5.66013 15.3524C5.63949 15.2237 5.63117 15.0933 5.63528 14.9629V14.9001C6.34248 15.2986 7.13425 15.5184 7.94332 15.5408C7.24695 15.0709 6.67629 14.4338 6.28223 13.6863C5.88818 12.9389 5.68299 12.1043 5.68496 11.257C5.68407 10.3447 5.91938 9.44811 6.36744 8.65657C7.64543 10.2507 9.24073 11.5545 11.0495 12.4831C12.8582 13.4116 14.8399 13.9441 16.8654 14.0459C16.6091 12.9405 16.7205 11.7803 17.1825 10.7456C17.6444 9.7109 18.4309 8.8596 19.4198 8.32393C20.4087 7.78826 21.5447 7.59821 22.6513 7.7833C23.7579 7.96839 24.7731 8.51826 25.5393 9.3475C26.6818 9.11922 27.7773 8.69431 28.778 8.09124C28.821 8.96585 28.677 9.83955 28.3558 10.6526C28.0345 11.4657 27.5436 12.1989 26.9167 12.8022Z" fill="white"/>
</svg>
