<svg width="24" height="24" viewBox="0 0 24 24" fill="none" xmlns="http://www.w3.org/2000/svg">
<path d="M12.53 20.42H6.21C3.05 20.42 2 18.32 2 16.21V7.79C2 4.63 3.05 3.58 6.21 3.58H12.53C15.69 3.58 16.74 4.63 16.74 7.79V16.21C16.74 19.37 15.68 20.42 12.53 20.42Z" stroke="white" stroke-width="1.5" stroke-linecap="round" stroke-linejoin="round"/>
<path d="M19.52 17.1L16.74 15.15V8.83999L19.52 6.88999C20.88 5.93999 22 6.51999 22 8.18999V15.81C22 17.48 20.88 18.06 19.52 17.1Z" stroke="white" stroke-width="1.5" stroke-linecap="round" stroke-linejoin="round"/>
<path d="M11.5 11C12.3284 11 13 10.3284 13 9.5C13 8.67157 12.3284 8 11.5 8C10.6716 8 10 8.67157 10 9.5C10 10.3284 10.6716 11 11.5 11Z" stroke="white" stroke-width="1.5" stroke-linecap="round" stroke-linejoin="round"/>
</svg>
