<svg width="20" height="20" viewBox="0 0 20 20" fill="none" xmlns="http://www.w3.org/2000/svg">
<path d="M10.442 17.0167H5.17533C2.54199 17.0167 1.66699 15.2667 1.66699 13.5083V6.49166C1.66699 3.85833 2.54199 2.98333 5.17533 2.98333H10.442C13.0753 2.98333 13.9503 3.85833 13.9503 6.49166V13.5083C13.9503 16.1417 13.067 17.0167 10.442 17.0167Z" stroke="white" stroke-width="1.5" stroke-linecap="round" stroke-linejoin="round"/>
<path d="M16.2669 14.25L13.9502 12.625V7.36667L16.2669 5.74167C17.4002 4.95 18.3335 5.43334 18.3335 6.825V13.175C18.3335 14.5667 17.4002 15.05 16.2669 14.25Z" stroke="white" stroke-width="1.5" stroke-linecap="round" stroke-linejoin="round"/>
<path d="M9.58301 9.16666C10.2734 9.16666 10.833 8.60702 10.833 7.91666C10.833 7.22631 10.2734 6.66666 9.58301 6.66666C8.89265 6.66666 8.33301 7.22631 8.33301 7.91666C8.33301 8.60702 8.89265 9.16666 9.58301 9.16666Z" stroke="white" stroke-width="1.5" stroke-linecap="round" stroke-linejoin="round"/>
</svg>
