<svg width="52" height="39" viewBox="0 0 966 740" fill="none" xmlns="http://www.w3.org/2000/svg">
<g filter="url(#filter0_d_1386_4472)">
<path fill-rule="evenodd" clip-rule="evenodd" d="M629.868 1H148.977L14.7111 303.683C8.77417 320.118 -2.27791 354.906 11.9707 400.925C26.2194 446.944 77.2772 475.34 99.6549 478.992H143.497C155.827 478.079 185.42 472.418 205.149 457.079C229.81 437.904 247.621 414.621 264.062 394.077C289.844 361.86 296.82 329.353 317.494 300.944C340.984 268.665 382.499 240.133 443.54 247.529C488.752 253.008 510.673 275.378 516.153 281.769C529.397 293.183 554.515 336.006 549.035 372.163C542.599 414.621 532.594 429.687 527.114 443.383C522.729 454.34 514.327 471.688 510.673 478.992L401.068 731H813.456L954.573 411.882C959.596 390.881 968.959 348.974 947.602 309.161C925.561 268.073 899.77 247.529 860.038 247.529H521.633L629.868 1ZM580.546 443.383L609.317 380.381C615.822 366.137 624.358 366.228 628.498 366.685H675.08C682.753 369.972 682.844 380.837 681.931 385.859C673.254 405.034 655.077 445.3 651.789 452.97C648.501 460.64 639.459 463.47 635.348 463.927H590.136C580.272 459.544 579.633 448.405 580.546 443.383ZM798.386 443.383L827.157 380.381C833.662 366.137 842.198 366.228 846.338 366.685H892.92C900.592 369.972 900.684 380.837 899.77 385.859C891.093 405.034 872.917 445.3 869.629 452.97C866.341 460.64 857.298 463.47 853.188 463.927H807.976C798.112 459.544 797.472 448.405 798.386 443.383ZM498.343 655.672L527.114 592.67C533.619 578.426 542.155 578.517 546.295 578.974H592.877C600.549 582.261 600.64 593.126 599.727 598.148C591.05 617.323 572.874 657.589 569.586 665.259C566.298 672.929 557.255 675.759 553.145 676.216H507.933C498.069 671.833 497.429 660.694 498.343 655.672ZM718.922 655.672L747.693 592.67C754.198 578.426 762.734 578.517 766.874 578.974H813.456C821.129 582.261 821.22 593.126 820.307 598.148C811.63 617.323 793.454 657.589 790.165 665.259C786.877 672.929 777.835 675.759 773.725 676.216H728.513C718.648 671.833 718.009 660.694 718.922 655.672ZM94.4129 347.51L123.184 284.508C129.689 270.265 138.225 270.356 142.365 270.812H188.947C196.619 274.099 196.711 284.965 195.797 289.987C187.12 309.161 168.944 349.428 165.656 357.098C162.368 364.767 153.326 367.598 149.215 368.054H104.003C94.1389 363.672 93.4995 352.532 94.4129 347.51ZM176.378 132.482L205.149 69.4803C211.654 55.2364 220.19 55.3277 224.33 55.7842H270.912C278.585 59.0713 278.676 69.9368 277.763 74.9587C269.085 94.1332 250.909 134.4 247.621 142.069C244.333 149.739 235.291 152.57 231.18 153.026H185.968C176.104 148.644 175.465 137.504 176.378 132.482ZM395.588 132.482L424.359 69.4803C430.864 55.2364 439.4 55.3277 443.54 55.7842H490.122C497.794 59.0713 497.886 69.9368 496.972 74.9587C488.295 94.1332 470.119 134.4 466.831 142.069C463.543 149.739 454.5 152.57 450.39 153.026H405.178C395.314 148.644 394.674 137.504 395.588 132.482Z" fill="white"/>
<path fill-rule="evenodd" clip-rule="evenodd" d="M143.497 478.992H327.085H510.673C514.327 471.688 522.729 454.34 527.114 443.383C532.594 429.687 542.599 414.621 549.035 372.163C554.515 336.006 529.397 293.183 516.153 281.769C510.673 275.378 488.752 253.008 443.54 247.529C382.499 240.133 340.984 268.665 317.494 300.944C296.82 329.353 289.844 361.86 264.062 394.077C247.621 414.621 229.81 437.904 205.149 457.079C185.42 472.418 155.827 478.079 143.497 478.992ZM317.494 407.773L346.266 344.771C352.77 330.527 361.306 330.619 365.446 331.075C369.586 331.532 412.029 331.075 412.029 331.075C419.701 334.362 419.792 345.228 418.879 350.25C410.202 369.424 392.026 409.69 388.737 417.36C385.449 425.03 376.407 427.861 372.297 428.317H327.085C317.22 423.934 316.581 412.795 317.494 407.773Z" fill="#FFC6D0"/>
<path d="M510.673 478.992L401.068 731H813.456L954.573 411.882C959.596 390.881 968.959 348.974 947.602 309.161C925.561 268.073 899.77 247.529 860.038 247.529H521.633L629.868 1H148.977L14.7111 303.683C8.77417 320.118 -2.27791 354.906 11.9707 400.925C26.2194 446.944 77.2772 475.34 99.6549 478.992H143.497M510.673 478.992C514.327 471.688 522.729 454.34 527.114 443.383C532.594 429.687 542.599 414.621 549.035 372.163C554.515 336.006 529.397 293.183 516.153 281.769C510.673 275.378 488.752 253.008 443.54 247.529C382.499 240.133 340.984 268.665 317.494 300.944C296.82 329.353 289.844 361.86 264.062 394.077C247.621 414.621 229.81 437.904 205.149 457.079C185.42 472.418 155.827 478.079 143.497 478.992M510.673 478.992H327.085H143.497M609.317 380.381L580.546 443.383C579.633 448.405 580.272 459.544 590.136 463.927H635.348C639.459 463.47 648.501 460.64 651.789 452.97C655.077 445.3 673.254 405.034 681.931 385.859C682.844 380.837 682.753 369.972 675.08 366.685H628.498C624.358 366.228 615.822 366.137 609.317 380.381ZM827.157 380.381L798.386 443.383C797.472 448.405 798.112 459.544 807.976 463.927H853.188C857.298 463.47 866.341 460.64 869.629 452.97C872.917 445.3 891.093 405.034 899.77 385.859C900.684 380.837 900.592 369.972 892.92 366.685H846.338C842.198 366.228 833.662 366.137 827.157 380.381ZM527.114 592.67L498.343 655.672C497.429 660.694 498.069 671.833 507.933 676.216H553.145C557.255 675.759 566.298 672.929 569.586 665.259C572.874 657.589 591.05 617.323 599.727 598.148C600.64 593.126 600.549 582.261 592.877 578.974H546.295C542.155 578.517 533.619 578.426 527.114 592.67ZM747.693 592.67L718.922 655.672C718.009 660.694 718.648 671.833 728.513 676.216H773.725C777.835 675.759 786.877 672.929 790.165 665.259C793.454 657.589 811.63 617.323 820.307 598.148C821.22 593.126 821.129 582.261 813.456 578.974H766.874C762.734 578.517 754.198 578.426 747.693 592.67ZM346.266 344.771L317.494 407.773C316.581 412.795 317.22 423.934 327.085 428.317H372.297C376.407 427.861 385.449 425.03 388.737 417.36C392.026 409.69 410.202 369.424 418.879 350.25C419.792 345.228 419.701 334.362 412.029 331.075C412.029 331.075 369.586 331.532 365.446 331.075C361.306 330.619 352.77 330.527 346.266 344.771ZM123.184 284.508L94.4129 347.51C93.4995 352.532 94.1389 363.672 104.003 368.054H149.215C153.326 367.598 162.368 364.767 165.656 357.098C168.944 349.428 187.12 309.161 195.797 289.987C196.711 284.965 196.619 274.099 188.947 270.812H142.365C138.225 270.356 129.689 270.265 123.184 284.508ZM205.149 69.4803L176.378 132.482C175.465 137.504 176.104 148.644 185.968 153.026H231.18C235.291 152.57 244.333 149.739 247.621 142.069C250.909 134.4 269.085 94.1332 277.763 74.9587C278.676 69.9368 278.585 59.0713 270.912 55.7842H224.33C220.19 55.3277 211.654 55.2364 205.149 69.4803ZM424.359 69.4803L395.588 132.482C394.674 137.504 395.314 148.644 405.178 153.026H450.39C454.5 152.57 463.543 149.739 466.831 142.069C470.119 134.4 488.295 94.1332 496.972 74.9587C497.886 69.9368 497.794 59.0713 490.122 55.7842H443.54C439.4 55.3277 430.864 55.2364 424.359 69.4803Z" stroke="#FFC6D0"/>
</g>
<defs>
<filter id="filter0_d_1386_4472" x="0.5" y="0.5" width="965" height="739" filterUnits="userSpaceOnUse" color-interpolation-filters="sRGB">
<feFlood flood-opacity="0" result="BackgroundImageFix"/>
<feColorMatrix in="SourceAlpha" type="matrix" values="0 0 0 0 0 0 0 0 0 0 0 0 0 0 0 0 0 0 127 0" result="hardAlpha"/>
<feOffset dy="4"/>
<feGaussianBlur stdDeviation="2"/>
<feComposite in2="hardAlpha" operator="out"/>
<feColorMatrix type="matrix" values="0 0 0 0 0 0 0 0 0 0 0 0 0 0 0 0 0 0 0.25 0"/>
<feBlend mode="normal" in2="BackgroundImageFix" result="effect1_dropShadow_1386_4472"/>
<feBlend mode="normal" in="SourceGraphic" in2="effect1_dropShadow_1386_4472" result="shape"/>
</filter>
</defs>
</svg>
